<?xml version="1.0" encoding="utf-8"?>
<!-- Generator: Adobe Illustrator 27.5.0, SVG Export Plug-In . SVG Version: 6.00 Build 0)  -->
<svg version="1.1" xmlns="http://www.w3.org/2000/svg" xmlns:xlink="http://www.w3.org/1999/xlink" x="0px" y="0px"
	 viewBox="0 0 500 500" style="enable-background:new 0 0 500 500;" xml:space="preserve">

<g id="OBJECTS">
	<g>
		<g>
			<polygon style="fill:#FFFFFF;stroke:#040404;stroke-linecap:round;stroke-linejoin:round;stroke-miterlimit:10;" points="
				193.475,156.764 193.475,107.235 203.915,100.523 203.915,156.764 			"/>
			<polygon style="fill:#FFFFFF;stroke:#040404;stroke-linecap:round;stroke-linejoin:round;stroke-miterlimit:10;" points="
				272.411,134.06 272.411,107.235 282.85,100.523 282.85,156.764 			"/>
			<path style="fill:#FFFFFF;stroke:#FD3F0F;stroke-linecap:round;stroke-linejoin:round;stroke-miterlimit:10;" d="
				M247.484,230.534c29.781,0,54.009-24.229,54.009-54.01v-49.53l-18.642,0.353l-10.44,6.712v42.465
				c0,13.746-11.182,24.928-24.927,24.928s-24.927-11.182-24.927-24.928v-49.53l-18.642,0.668l-10.44,6.712v42.15
				C193.475,206.305,217.703,230.534,247.484,230.534z"/>
			<path style="fill:#FD3F0F;stroke:#FD3F0F;stroke-linecap:round;stroke-linejoin:round;stroke-miterlimit:10;" d="
				M257.924,223.823c29.781,0,54.009-24.229,54.009-54.01v-49.529H282.85v49.529c0,13.746-11.182,24.928-24.927,24.928
				c-13.745,0-24.927-11.182-24.927-24.928v-49.529h-29.082v49.529C203.915,199.594,228.142,223.823,257.924,223.823z"/>
			
				<rect x="282.85" y="100.523" transform="matrix(-1 -1.224647e-16 1.224647e-16 -1 594.7825 227.518)" style="fill:#040404;stroke:#040404;stroke-width:0.9938;stroke-linecap:round;stroke-linejoin:round;stroke-miterlimit:10;" width="29.082" height="26.472"/>
			
				<rect x="203.915" y="100.523" transform="matrix(-1 -1.224647e-16 1.224647e-16 -1 436.9117 227.518)" style="fill:#040404;stroke:#040404;stroke-width:0.9938;stroke-linecap:round;stroke-linejoin:round;stroke-miterlimit:10;" width="29.082" height="26.472"/>
		</g>
		
			<rect x="245.111" y="241.695" transform="matrix(6.123234e-17 -1 1 6.123234e-17 -15.073 513.7688)" style="fill:#FFFFFF;stroke:#040404;stroke-linecap:round;stroke-linejoin:round;stroke-miterlimit:10;" width="8.475" height="45.453"/>
		
			<rect x="233.409" y="242.158" transform="matrix(6.123234e-17 -1 1 6.123234e-17 5.1027 493.593)" style="fill:#040404;stroke:#040404;stroke-linecap:round;stroke-linejoin:round;stroke-miterlimit:10;" width="31.877" height="4.174"/>
		<path style="fill:#040404;stroke:#040404;stroke-linecap:round;stroke-linejoin:round;stroke-miterlimit:10;" d="M259.424,227.355
			v6.171h-20.152v-8.808l0,0c5.152,2.203,11.249,3.985,19.723,2.862L259.424,227.355z"/>
		
			<rect x="243.103" y="235.242" transform="matrix(6.123234e-17 -1 1 6.123234e-17 8.8304 489.8654)" style="fill:#FFFFFF;stroke:#040404;stroke-linecap:round;stroke-linejoin:round;stroke-miterlimit:10;" width="12.49" height="10.552"/>
		<polyline style="fill:none;stroke:#040404;stroke-linecap:round;stroke-linejoin:round;stroke-miterlimit:10;" points="
			292.872,89.044 292.439,67.173 306.179,67.518 312.102,40.152 		"/>
		<polyline style="fill:none;stroke:#040404;stroke-linecap:round;stroke-linejoin:round;stroke-miterlimit:10;" points="
			300.517,90.928 316.063,68.201 328.45,72.797 343.743,52.198 		"/>
		<polyline style="fill:none;stroke:#040404;stroke-linecap:round;stroke-linejoin:round;stroke-miterlimit:10;" points="
			216.225,90.826 216.658,68.955 202.918,69.299 196.995,41.934 		"/>
		<polyline style="fill:none;stroke:#040404;stroke-linecap:round;stroke-linejoin:round;stroke-miterlimit:10;" points="
			208.58,92.71 193.034,69.983 180.647,74.579 165.354,53.98 		"/>
	</g>
	<g>
		<rect x="353.079" y="289.596" style="fill:#E0E0E0;" width="36.509" height="38.365"/>
		<rect x="119.885" y="266.511" style="fill:#E0E0E0;" width="62.538" height="31.919"/>
		<rect x="105.598" y="370.179" style="fill:#E0E0E0;" width="62.538" height="31.919"/>
		<rect x="291.362" y="355.122" style="fill:#E0E0E0;" width="84.1" height="22.91"/>
		<g>
			<path style="fill:#040404;stroke:#040404;stroke-linecap:round;stroke-linejoin:round;stroke-miterlimit:10;" d="
				M339.309,402.557h-178.5c-1.524,0-2.759-1.236-2.759-2.759v-127.6c0-1.524,1.235-2.759,2.759-2.759h178.5
				c1.524,0,2.759,1.235,2.759,2.759v127.6C342.069,401.322,340.833,402.557,339.309,402.557z"/>
			
				<rect x="223.745" y="402.557" style="fill:#040404;stroke:#040404;stroke-linecap:round;stroke-linejoin:round;stroke-miterlimit:10;" width="52.629" height="12.377"/>
			<path style="fill:#FFFFFF;stroke:#040404;stroke-linecap:round;stroke-linejoin:round;stroke-miterlimit:10;" d="
				M287.338,426.839h-74.557l0,0c0-6.574,5.33-11.904,11.904-11.904h50.749C282.009,414.934,287.338,420.264,287.338,426.839
				L287.338,426.839z"/>
			<path style="fill:#FFFFFF;stroke:#040404;stroke-linecap:round;stroke-linejoin:round;stroke-miterlimit:10;" d="M158.05,372.578
				v27.22c0,1.524,1.235,2.759,2.759,2.759h178.5c1.524,0,2.759-1.236,2.759-2.759v-27.22H158.05z"/>
			
				<rect x="163.105" y="274.4" style="fill:#FFFFFF;stroke:#040404;stroke-linecap:round;stroke-linejoin:round;stroke-miterlimit:10;" width="173.908" height="93.696"/>
			<path style="fill:#FD3F0F;" d="M252.421,388.501c0,1.304-1.057,2.362-2.362,2.362c-1.304,0-2.362-1.057-2.362-2.362
				c0-1.304,1.057-2.362,2.362-2.362C251.364,386.139,252.421,387.196,252.421,388.501z"/>
			<g>
				<rect x="172.822" y="284.522" style="fill:#E0E0E0;" width="91.28" height="21.655"/>
				<g>
					<rect x="274.96" y="324.387" style="fill:#E0E0E0;" width="52.338" height="1.698"/>
					<rect x="274.96" y="330.503" style="fill:#E0E0E0;" width="52.338" height="1.698"/>
					<rect x="274.96" y="336.62" style="fill:#E0E0E0;" width="52.338" height="1.698"/>
					<rect x="274.96" y="342.737" style="fill:#E0E0E0;" width="52.338" height="1.698"/>
					<rect x="274.96" y="348.853" style="fill:#E0E0E0;" width="52.338" height="1.698"/>
					<rect x="274.96" y="354.97" style="fill:#E0E0E0;" width="52.338" height="1.698"/>
				</g>
				<rect x="172.822" y="312.989" style="fill:#E0E0E0;" width="91.28" height="45.24"/>
				<rect x="274.96" y="284.522" style="fill:#E0E0E0;" width="52.338" height="32.178"/>
			</g>
		</g>
		<g>
			
				<rect x="287.197" y="261.653" style="fill:#FFFFFF;stroke:#040404;stroke-linecap:round;stroke-linejoin:round;stroke-miterlimit:10;" width="76.58" height="50.089"/>
			
				<rect x="306.986" y="269.95" style="fill:#FD3F0F;stroke:#FD3F0F;stroke-linecap:round;stroke-linejoin:round;stroke-miterlimit:10;" width="35.785" height="35.785"/>
			<path style="fill:#FFFFFF;stroke:#040404;stroke-linecap:round;stroke-linejoin:round;stroke-miterlimit:10;" d="
				M331.397,286.647l-9.831-5.626c-0.197-0.112-0.438-0.112-0.635,0.002c-0.196,0.114-0.316,0.323-0.316,0.55v11.251
				c0,0.227,0.121,0.436,0.316,0.55c0.099,0.057,0.209,0.086,0.319,0.086c0.109,0,0.218-0.028,0.316-0.084l9.831-5.626
				c0.198-0.113,0.32-0.324,0.32-0.552S331.595,286.76,331.397,286.647z"/>
		</g>
		<g>
			<g>
				
					<rect x="229.511" y="329.118" style="fill:#FD3F0F;stroke:#FD3F0F;stroke-linecap:round;stroke-linejoin:round;stroke-miterlimit:10;" width="79.753" height="32.444"/>
				<path style="fill:#FFFFFF;stroke:#040404;stroke-linecap:round;stroke-linejoin:round;stroke-miterlimit:10;" d="
					M253.613,354.771h-15.66c-0.884,0-1.601-0.717-1.601-1.601v-15.66c0-0.884,0.717-1.601,1.601-1.601h15.66
					c0.884,0,1.601,0.717,1.601,1.601v15.66C255.214,354.054,254.497,354.771,253.613,354.771z"/>
			</g>
			
				<line style="fill:#FFFFFF;stroke:#040404;stroke-linecap:round;stroke-linejoin:round;stroke-miterlimit:10;" x1="263.567" y1="338.008" x2="297.039" y2="338.008"/>
			
				<line style="fill:#FFFFFF;stroke:#040404;stroke-linecap:round;stroke-linejoin:round;stroke-miterlimit:10;" x1="263.567" y1="343.364" x2="297.039" y2="343.364"/>
			
				<line style="fill:#FFFFFF;stroke:#040404;stroke-linecap:round;stroke-linejoin:round;stroke-miterlimit:10;" x1="263.567" y1="348.719" x2="297.039" y2="348.719"/>
			
				<line style="fill:#FFFFFF;stroke:#040404;stroke-linecap:round;stroke-linejoin:round;stroke-miterlimit:10;" x1="263.567" y1="354.075" x2="297.039" y2="354.075"/>
		</g>
		<g>
			
				<rect x="124.527" y="281.961" style="fill:#FD3F0F;stroke:#FD3F0F;stroke-linecap:round;stroke-linejoin:round;stroke-miterlimit:10;" width="91.826" height="52.338"/>
			
				<rect x="132.002" y="290.683" style="fill:#040404;stroke:#040404;stroke-linecap:round;stroke-linejoin:round;stroke-miterlimit:10;" width="35.355" height="35.355"/>
			<polygon style="fill:#FFFFFF;stroke:#000000;stroke-linecap:round;stroke-linejoin:round;stroke-miterlimit:10;" points="
				132.002,310.558 139.931,300.788 146.536,315.557 154.213,309.13 167.357,318.227 167.357,326.038 132.002,326.038 			"/>
			
				<circle style="fill:#FD3F0F;stroke:#FD3F0F;stroke-linecap:round;stroke-linejoin:round;stroke-miterlimit:10;" cx="157.248" cy="299.133" r="4.463"/>
			<g>
				
					<line style="fill:#FFFFFF;stroke:#040404;stroke-linecap:round;stroke-linejoin:round;stroke-miterlimit:10;" x1="175.189" y1="291.1" x2="208.661" y2="291.1"/>
				
					<line style="fill:#FFFFFF;stroke:#040404;stroke-linecap:round;stroke-linejoin:round;stroke-miterlimit:10;" x1="175.189" y1="296.455" x2="208.661" y2="296.455"/>
				
					<line style="fill:#FFFFFF;stroke:#040404;stroke-linecap:round;stroke-linejoin:round;stroke-miterlimit:10;" x1="175.189" y1="301.811" x2="208.661" y2="301.811"/>
				
					<line style="fill:#FFFFFF;stroke:#040404;stroke-linecap:round;stroke-linejoin:round;stroke-miterlimit:10;" x1="175.189" y1="307.167" x2="208.661" y2="307.167"/>
			</g>
			
				<rect x="191.925" y="321.426" style="fill:#FFFFFF;stroke:#FFFFFF;stroke-linecap:round;stroke-linejoin:round;stroke-miterlimit:10;" width="16.736" height="5.171"/>
		</g>
		<g>
			
				<rect x="118.477" y="339.84" style="fill:#FFFFFF;stroke:#040404;stroke-linecap:round;stroke-linejoin:round;stroke-miterlimit:10;" width="62.199" height="53.474"/>
			
				<rect x="123.616" y="344.762" style="fill:#FFFFFF;stroke:#040404;stroke-linecap:round;stroke-linejoin:round;stroke-miterlimit:10;" width="52.354" height="22.795"/>
			<g>
				
					<line style="fill:#FFFFFF;stroke:#040404;stroke-linecap:round;stroke-linejoin:round;stroke-miterlimit:10;" x1="123.081" y1="376.017" x2="150.654" y2="376.017"/>
				
					<line style="fill:#FFFFFF;stroke:#040404;stroke-linecap:round;stroke-linejoin:round;stroke-miterlimit:10;" x1="123.081" y1="380.428" x2="150.654" y2="380.428"/>
				
					<line style="fill:#FFFFFF;stroke:#040404;stroke-linecap:round;stroke-linejoin:round;stroke-miterlimit:10;" x1="123.081" y1="384.84" x2="150.654" y2="384.84"/>
			</g>
		</g>
	</g>
	<text transform="matrix(1 0 0 1 23.9994 191.1941)"><tspan x="0" y="0" style="font-family:'Poppins-Light'; font-size:26px; letter-spacing:1;">Inbound</tspan><tspan x="0" y="27" style="font-family:'Poppins-SemiBold'; font-size:26px; letter-spacing:1;">Marketing</tspan></text>
	<rect x="23.999" y="261.207" style="fill:none;" width="66.001" height="105.37"/>
	<rect x="332.418" y="192.04" style="fill:none;" width="140.948" height="32.901"/>
	
		
	<g>
		<g>
			<defs>
				
					<ellipse id="SVGID_1_" transform="matrix(0.7071 -0.7071 0.7071 0.7071 25.5995 302.8182)" cx="378.334" cy="120.508" rx="24.443" ry="24.443"/>
			</defs>
			<use xlink:href="#SVGID_1_"  style="overflow:visible;fill:#FFFFFF;"/>
			<clipPath id="SVGID_00000173143972097899236960000010950142292053543324_">
				<use xlink:href="#SVGID_1_"  style="overflow:visible;"/>
			</clipPath>
			
				<path style="clip-path:url(#SVGID_00000173143972097899236960000010950142292053543324_);fill:#FD3F0F;stroke:#FD3F0F;stroke-linecap:round;stroke-linejoin:round;stroke-miterlimit:10;" d="
				M385.529,123.828h-14.392c-3.839,0-6.951,3.112-6.951,6.951v16.289h5.054v-14.016h1.94v14.016h14.306v-14.016h1.94v14.016h5.054
				v-16.289C392.48,126.94,389.368,123.828,385.529,123.828z"/>
			
				<path style="clip-path:url(#SVGID_00000173143972097899236960000010950142292053543324_);fill:#FFFFFF;stroke:#040404;stroke-width:1.8165;stroke-linecap:round;stroke-linejoin:round;stroke-miterlimit:10;" d="
				M378.334,120.998L378.334,120.998c-2.836,0-5.135-2.299-5.135-5.135v-2.122c0-2.836,2.299-5.135,5.135-5.135l0,0
				c2.836,0,5.135,2.299,5.135,5.135v2.122C383.469,118.699,381.17,120.998,378.334,120.998z"/>
			
				<use xlink:href="#SVGID_1_"  style="overflow:visible;fill:none;stroke:#040404;stroke-linecap:round;stroke-linejoin:round;stroke-miterlimit:10;"/>
		</g>
		<g>
			<defs>
				
					<ellipse id="SVGID_00000129197651752225277510000002960256811907825026_" transform="matrix(0.2424 -0.9702 0.9702 0.2424 254.9535 445.1178)" cx="412.478" cy="59.316" rx="24.443" ry="24.443"/>
			</defs>
			<use xlink:href="#SVGID_00000129197651752225277510000002960256811907825026_"  style="overflow:visible;fill:#FD3F0F;"/>
			<clipPath id="SVGID_00000143599255980189549950000012684812203571958672_">
				<use xlink:href="#SVGID_00000129197651752225277510000002960256811907825026_"  style="overflow:visible;"/>
			</clipPath>
			<path style="clip-path:url(#SVGID_00000143599255980189549950000012684812203571958672_);fill:#FFFFFF;" d="M419.674,62.636
				h-14.392c-3.839,0-6.951,3.112-6.951,6.951v16.289h5.054V71.86h1.94v14.016h14.306V71.86h1.94v14.016h5.054V69.587
				C426.625,65.748,423.513,62.636,419.674,62.636z"/>
			
				<path style="clip-path:url(#SVGID_00000143599255980189549950000012684812203571958672_);fill:#FFFFFF;stroke:#040404;stroke-width:1.8165;stroke-linecap:round;stroke-linejoin:round;stroke-miterlimit:10;" d="
				M412.478,59.807L412.478,59.807c-2.836,0-5.135-2.299-5.135-5.135V52.55c0-2.836,2.299-5.135,5.135-5.135l0,0
				c2.836,0,5.135,2.299,5.135,5.135v2.122C417.613,57.508,415.314,59.807,412.478,59.807z"/>
			
				<use xlink:href="#SVGID_00000129197651752225277510000002960256811907825026_"  style="overflow:visible;fill:none;stroke:#040404;stroke-miterlimit:10;"/>
		</g>
		<g>
			<defs>
				<circle id="SVGID_00000039845824164212569510000002931389016632539028_" cx="82.574" cy="53.94" r="24.443"/>
			</defs>
			<use xlink:href="#SVGID_00000039845824164212569510000002931389016632539028_"  style="overflow:visible;fill:#FD3F0F;"/>
			<clipPath id="SVGID_00000106146444912182455860000010907869018175213726_">
				<use xlink:href="#SVGID_00000039845824164212569510000002931389016632539028_"  style="overflow:visible;"/>
			</clipPath>
			<path style="clip-path:url(#SVGID_00000106146444912182455860000010907869018175213726_);fill:#040404;" d="M89.77,57.26H75.378
				c-3.839,0-6.951,3.112-6.951,6.951V80.5h5.054V66.484h1.94V80.5h14.306V66.484h1.94V80.5h5.054V64.211
				C96.721,60.372,93.609,57.26,89.77,57.26z"/>
			
				<path style="clip-path:url(#SVGID_00000106146444912182455860000010907869018175213726_);fill:#FFFFFF;stroke:#040404;stroke-width:1.8165;stroke-linecap:round;stroke-linejoin:round;stroke-miterlimit:10;" d="
				M82.574,54.431L82.574,54.431c-2.836,0-5.135-2.299-5.135-5.135v-2.122c0-2.836,2.299-5.135,5.135-5.135l0,0
				c2.836,0,5.135,2.299,5.135,5.135v2.122C87.709,52.132,85.41,54.431,82.574,54.431z"/>
			
				<use xlink:href="#SVGID_00000039845824164212569510000002931389016632539028_"  style="overflow:visible;fill:none;stroke:#040404;stroke-miterlimit:10;"/>
		</g>
		<g>
			<defs>
				
					<ellipse id="SVGID_00000154394436509736591240000010516070906931195036_" transform="matrix(0.6255 -0.7802 0.7802 0.6255 -38.5049 148.7899)" cx="135.75" cy="114.507" rx="24.443" ry="24.443"/>
			</defs>
			<use xlink:href="#SVGID_00000154394436509736591240000010516070906931195036_"  style="overflow:visible;fill:#FFFFFF;"/>
			<clipPath id="SVGID_00000161614978238281751340000000874927966948712069_">
				<use xlink:href="#SVGID_00000154394436509736591240000010516070906931195036_"  style="overflow:visible;"/>
			</clipPath>
			
				<path style="clip-path:url(#SVGID_00000161614978238281751340000000874927966948712069_);fill:#FD3F0F;stroke:#FD3F0F;stroke-linecap:round;stroke-linejoin:round;stroke-miterlimit:10;" d="
				M142.945,117.827h-14.392c-3.839,0-6.951,3.112-6.951,6.951v16.289h5.054v-14.016h1.94v14.016h14.306v-14.016h1.94v14.016h5.054
				v-16.289C149.896,120.939,146.784,117.827,142.945,117.827z"/>
			
				<path style="clip-path:url(#SVGID_00000161614978238281751340000000874927966948712069_);fill:#FFFFFF;stroke:#040404;stroke-width:1.8165;stroke-linecap:round;stroke-linejoin:round;stroke-miterlimit:10;" d="
				M135.75,114.998L135.75,114.998c-2.836,0-5.135-2.299-5.135-5.135v-2.122c0-2.836,2.299-5.135,5.135-5.135l0,0
				c2.836,0,5.135,2.299,5.135,5.135v2.122C140.885,112.699,138.586,114.998,135.75,114.998z"/>
			
				<use xlink:href="#SVGID_00000154394436509736591240000010516070906931195036_"  style="overflow:visible;fill:none;stroke:#FD3F0F;stroke-linecap:round;stroke-linejoin:round;stroke-miterlimit:10;"/>
		</g>
	</g>
	
</g>

</svg>
