<?xml version="1.0" encoding="utf-8"?>
<!-- Generator: Adobe Illustrator 27.5.0, SVG Export Plug-In . SVG Version: 6.00 Build 0)  -->
<svg version="1.1" xmlns="http://www.w3.org/2000/svg" xmlns:xlink="http://www.w3.org/1999/xlink" x="0px" y="0px"
	 viewBox="0 0 500 500" style="enable-background:new 0 0 500 500;" xml:space="preserve">


<g id="OBJECTS">
	<g>
		<g>
			<g>
				<g>
					<linearGradient id="SVGID_1_" gradientUnits="userSpaceOnUse" x1="367.1535" y1="0" x2="367.1535" y2="420.3799">
						<stop  offset="0.4405" style="stop-color:#2B496F"/>
						<stop  offset="0.7166" style="stop-color:#1B3350"/>
					</linearGradient>
					<rect x="320.328" style="fill:url(#SVGID_1_);" width="93.651" height="420.38"/>
					<g>
						<g>
							<g>
								<g>
									<g>
										<g>
											<rect x="330.124" y="16.853" style="fill:#0F9BA6;" width="18.239" height="1.456"/>
											<rect x="334.776" y="20.398" style="fill:#325580;" width="18.239" height="1.456"/>
											<rect x="356.356" y="20.398" style="fill:#436FA5;" width="33.012" height="1.456"/>
											<rect x="334.776" y="23.905" style="fill:#325580;" width="23.818" height="1.456"/>
											<rect x="361.934" y="23.905" style="fill:#436FA5;" width="24.533" height="1.456"/>
											<rect x="334.776" y="27.347" style="fill:#325580;" width="18.239" height="1.456"/>
											<rect x="356.356" y="27.347" style="fill:#436FA5;" width="18.268" height="1.456"/>
											<rect x="334.776" y="30.548" style="fill:#325580;" width="23.818" height="1.456"/>
											<rect x="361.934" y="30.548" style="fill:#436FA5;" width="27.433" height="1.456"/>
										</g>
									</g>
									<rect x="349.728" y="16.853" style="fill:#436FA5;" width="0.906" height="1.456"/>
									<rect x="334.776" y="33.179" style="fill:#436FA5;" width="0.906" height="1.456"/>
								</g>
							</g>
							<circle style="fill:#0F9BA6;" cx="328.146" cy="17.58" r="0.728"/>
						</g>
						<g>
							<g>
								<g>
									<g>
										<g>
											<rect x="330.124" y="41.967" style="fill:#0F9BA6;" width="18.239" height="1.456"/>
											<rect x="334.776" y="45.512" style="fill:#325580;" width="18.239" height="1.456"/>
											<rect x="356.356" y="45.512" style="fill:#436FA5;" width="33.012" height="1.456"/>
											<rect x="334.776" y="49.019" style="fill:#325580;" width="23.818" height="1.456"/>
											<rect x="361.934" y="49.019" style="fill:#436FA5;" width="24.533" height="1.456"/>
											<rect x="334.776" y="52.461" style="fill:#325580;" width="18.239" height="1.456"/>
											<rect x="356.356" y="52.461" style="fill:#436FA5;" width="18.268" height="1.456"/>
											<rect x="334.776" y="55.662" style="fill:#325580;" width="23.818" height="1.456"/>
											<rect x="361.934" y="55.662" style="fill:#436FA5;" width="27.433" height="1.456"/>
										</g>
									</g>
									<rect x="349.728" y="41.967" style="fill:#436FA5;" width="0.906" height="1.456"/>
									<rect x="334.776" y="58.293" style="fill:#436FA5;" width="0.906" height="1.456"/>
								</g>
							</g>
							<circle style="fill:#0F9BA6;" cx="328.146" cy="42.695" r="0.728"/>
						</g>
						<g>
							<g>
								<g>
									<g>
										<g>
											<rect x="330.124" y="67.081" style="fill:#0F9BA6;" width="18.239" height="1.456"/>
											<rect x="334.776" y="70.627" style="fill:#325580;" width="18.239" height="1.456"/>
											<rect x="356.356" y="70.627" style="fill:#436FA5;" width="33.012" height="1.456"/>
											<rect x="334.776" y="74.133" style="fill:#325580;" width="23.818" height="1.456"/>
											<rect x="361.934" y="74.133" style="fill:#436FA5;" width="24.533" height="1.456"/>
											<rect x="334.776" y="77.575" style="fill:#325580;" width="18.239" height="1.456"/>
											<rect x="356.356" y="77.575" style="fill:#436FA5;" width="18.268" height="1.456"/>
											<rect x="334.776" y="80.776" style="fill:#325580;" width="23.818" height="1.456"/>
											<rect x="361.934" y="80.776" style="fill:#436FA5;" width="27.433" height="1.456"/>
										</g>
									</g>
									<rect x="349.728" y="67.081" style="fill:#436FA5;" width="0.906" height="1.456"/>
									<rect x="334.776" y="83.408" style="fill:#436FA5;" width="0.906" height="1.456"/>
								</g>
							</g>
							<circle style="fill:#0F9BA6;" cx="328.146" cy="67.809" r="0.728"/>
						</g>
						<g>
							<g>
								<g>
									<g>
										<g>
											<rect x="330.124" y="92.195" style="fill:#0F9BA6;" width="18.239" height="1.456"/>
											<rect x="334.776" y="95.741" style="fill:#325580;" width="18.239" height="1.456"/>
											<rect x="356.356" y="95.741" style="fill:#436FA5;" width="33.012" height="1.456"/>
											<rect x="334.776" y="99.248" style="fill:#325580;" width="23.818" height="1.456"/>
											<rect x="361.934" y="99.248" style="fill:#436FA5;" width="24.533" height="1.456"/>
											<rect x="334.776" y="102.69" style="fill:#325580;" width="18.239" height="1.456"/>
											<rect x="356.356" y="102.69" style="fill:#436FA5;" width="18.268" height="1.456"/>
											<rect x="334.776" y="105.891" style="fill:#325580;" width="23.818" height="1.456"/>
											<rect x="361.934" y="105.891" style="fill:#436FA5;" width="27.433" height="1.456"/>
										</g>
									</g>
									<rect x="349.728" y="92.195" style="fill:#436FA5;" width="0.906" height="1.456"/>
									<rect x="334.776" y="108.522" style="fill:#436FA5;" width="0.906" height="1.456"/>
								</g>
							</g>
							<circle style="fill:#0F9BA6;" cx="328.146" cy="92.923" r="0.728"/>
						</g>
						<g>
							<g>
								<g>
									<g>
										<g>
											<rect x="330.124" y="117.31" style="fill:#0F9BA6;" width="18.239" height="1.456"/>
											<rect x="334.776" y="120.855" style="fill:#325580;" width="18.239" height="1.456"/>
											<rect x="356.356" y="120.855" style="fill:#436FA5;" width="33.012" height="1.456"/>
											<rect x="334.776" y="124.362" style="fill:#325580;" width="23.818" height="1.456"/>
											<rect x="361.934" y="124.362" style="fill:#436FA5;" width="24.533" height="1.456"/>
											<rect x="334.776" y="127.804" style="fill:#325580;" width="18.239" height="1.456"/>
											<rect x="356.356" y="127.804" style="fill:#436FA5;" width="18.268" height="1.456"/>
											<rect x="334.776" y="131.005" style="fill:#325580;" width="23.818" height="1.456"/>
											<rect x="361.934" y="131.005" style="fill:#436FA5;" width="27.433" height="1.456"/>
										</g>
									</g>
									<rect x="349.728" y="117.31" style="fill:#436FA5;" width="0.906" height="1.456"/>
									<rect x="334.776" y="133.637" style="fill:#436FA5;" width="0.906" height="1.456"/>
								</g>
							</g>
							<circle style="fill:#0F9BA6;" cx="328.146" cy="118.038" r="0.728"/>
						</g>
						<g>
							<g>
								<g>
									<g>
										<g>
											<rect x="330.124" y="142.424" style="fill:#0F9BA6;" width="18.239" height="1.456"/>
											<rect x="334.776" y="145.97" style="fill:#325580;" width="18.239" height="1.456"/>
											<rect x="356.356" y="145.97" style="fill:#436FA5;" width="33.012" height="1.456"/>
											<rect x="334.776" y="149.476" style="fill:#325580;" width="23.818" height="1.456"/>
											<rect x="361.934" y="149.476" style="fill:#436FA5;" width="24.533" height="1.456"/>
											<rect x="334.776" y="152.918" style="fill:#325580;" width="18.239" height="1.456"/>
											<rect x="356.356" y="152.918" style="fill:#436FA5;" width="18.268" height="1.456"/>
											<rect x="334.776" y="156.119" style="fill:#325580;" width="23.818" height="1.456"/>
											<rect x="361.934" y="156.119" style="fill:#436FA5;" width="27.433" height="1.456"/>
										</g>
									</g>
									<rect x="349.728" y="142.424" style="fill:#436FA5;" width="0.906" height="1.456"/>
									<rect x="334.776" y="158.751" style="fill:#436FA5;" width="0.906" height="1.456"/>
								</g>
							</g>
							<circle style="fill:#0F9BA6;" cx="328.146" cy="143.152" r="0.728"/>
						</g>
						<g>
							<g>
								<g>
									<g>
										<g>
											<rect x="330.124" y="167.538" style="fill:#0F9BA6;" width="18.239" height="1.456"/>
											<rect x="334.776" y="171.084" style="fill:#325580;" width="18.239" height="1.456"/>
											<rect x="356.356" y="171.084" style="fill:#436FA5;" width="33.012" height="1.456"/>
											<rect x="334.776" y="174.591" style="fill:#325580;" width="23.818" height="1.456"/>
											<rect x="361.934" y="174.591" style="fill:#436FA5;" width="24.533" height="1.456"/>
											<rect x="334.776" y="178.033" style="fill:#325580;" width="18.239" height="1.456"/>
											<rect x="356.356" y="178.033" style="fill:#436FA5;" width="18.268" height="1.456"/>
											<rect x="334.776" y="181.233" style="fill:#325580;" width="23.818" height="1.456"/>
											<rect x="361.934" y="181.233" style="fill:#436FA5;" width="27.433" height="1.456"/>
										</g>
									</g>
									<rect x="349.728" y="167.538" style="fill:#436FA5;" width="0.906" height="1.456"/>
									<rect x="334.776" y="183.865" style="fill:#436FA5;" width="0.906" height="1.456"/>
								</g>
							</g>
							<circle style="fill:#0F9BA6;" cx="328.146" cy="168.266" r="0.728"/>
						</g>
						<g>
							<g>
								<g>
									<g>
										<g>
											<rect x="330.124" y="192.653" style="fill:#0F9BA6;" width="18.239" height="1.456"/>
											<rect x="334.776" y="196.198" style="fill:#325580;" width="18.239" height="1.456"/>
											<rect x="356.356" y="196.198" style="fill:#436FA5;" width="33.012" height="1.456"/>
											<rect x="334.776" y="199.705" style="fill:#325580;" width="23.818" height="1.456"/>
											<rect x="361.934" y="199.705" style="fill:#436FA5;" width="24.533" height="1.456"/>
											<rect x="334.776" y="203.147" style="fill:#325580;" width="18.239" height="1.456"/>
											<rect x="356.356" y="203.147" style="fill:#436FA5;" width="18.268" height="1.456"/>
											<rect x="334.776" y="206.348" style="fill:#325580;" width="23.818" height="1.456"/>
											<rect x="361.934" y="206.348" style="fill:#436FA5;" width="27.433" height="1.456"/>
										</g>
									</g>
									<rect x="349.728" y="192.653" style="fill:#436FA5;" width="0.906" height="1.456"/>
									<rect x="334.776" y="208.979" style="fill:#436FA5;" width="0.906" height="1.456"/>
								</g>
							</g>
							<circle style="fill:#0F9BA6;" cx="328.146" cy="193.38" r="0.728"/>
						</g>
						<g>
							<g>
								<g>
									<g>
										<g>
											<rect x="330.124" y="217.767" style="fill:#0F9BA6;" width="18.239" height="1.456"/>
											<rect x="334.776" y="221.313" style="fill:#325580;" width="18.239" height="1.456"/>
											<rect x="356.356" y="221.313" style="fill:#436FA5;" width="33.012" height="1.456"/>
											<rect x="334.776" y="224.819" style="fill:#325580;" width="23.818" height="1.456"/>
											<rect x="361.934" y="224.819" style="fill:#436FA5;" width="24.533" height="1.456"/>
											<rect x="334.776" y="228.261" style="fill:#325580;" width="18.239" height="1.456"/>
											<rect x="356.356" y="228.261" style="fill:#436FA5;" width="18.268" height="1.456"/>
											<rect x="334.776" y="231.462" style="fill:#325580;" width="23.818" height="1.456"/>
											<rect x="361.934" y="231.462" style="fill:#436FA5;" width="27.433" height="1.456"/>
										</g>
									</g>
									<rect x="349.728" y="217.767" style="fill:#436FA5;" width="0.906" height="1.456"/>
									<rect x="334.776" y="234.094" style="fill:#436FA5;" width="0.906" height="1.456"/>
								</g>
							</g>
							<circle style="fill:#0F9BA6;" cx="328.146" cy="218.495" r="0.728"/>
						</g>
						<g>
							<g>
								<g>
									<g>
										<g>
											<rect x="330.124" y="242.881" style="fill:#0F9BA6;" width="18.239" height="1.456"/>
											<rect x="334.776" y="246.427" style="fill:#325580;" width="18.239" height="1.456"/>
											<rect x="356.356" y="246.427" style="fill:#436FA5;" width="33.012" height="1.456"/>
											<rect x="334.776" y="249.934" style="fill:#325580;" width="23.818" height="1.456"/>
											<rect x="361.934" y="249.934" style="fill:#436FA5;" width="24.533" height="1.456"/>
											<rect x="334.776" y="253.376" style="fill:#325580;" width="18.239" height="1.456"/>
											<rect x="356.356" y="253.376" style="fill:#436FA5;" width="18.268" height="1.456"/>
											<rect x="334.776" y="256.576" style="fill:#325580;" width="23.818" height="1.456"/>
											<rect x="361.934" y="256.576" style="fill:#436FA5;" width="27.433" height="1.456"/>
										</g>
									</g>
									<rect x="349.728" y="242.881" style="fill:#436FA5;" width="0.906" height="1.456"/>
									<rect x="334.776" y="259.208" style="fill:#436FA5;" width="0.906" height="1.456"/>
								</g>
							</g>
							<circle style="fill:#0F9BA6;" cx="328.146" cy="243.609" r="0.728"/>
						</g>
						<g>
							<g>
								<g>
									<g>
										<g>
											<rect x="330.124" y="267.996" style="fill:#0F9BA6;" width="18.239" height="1.456"/>
											<rect x="334.776" y="271.541" style="fill:#325580;" width="18.239" height="1.456"/>
											<rect x="356.356" y="271.541" style="fill:#436FA5;" width="33.012" height="1.456"/>
											<rect x="334.776" y="275.048" style="fill:#325580;" width="23.818" height="1.456"/>
											<rect x="361.934" y="275.048" style="fill:#436FA5;" width="24.533" height="1.456"/>
											<rect x="334.776" y="278.49" style="fill:#325580;" width="18.239" height="1.456"/>
											<rect x="356.356" y="278.49" style="fill:#436FA5;" width="18.268" height="1.456"/>
											<rect x="334.776" y="281.691" style="fill:#325580;" width="23.818" height="1.456"/>
											<rect x="361.934" y="281.691" style="fill:#436FA5;" width="27.433" height="1.456"/>
										</g>
									</g>
									<rect x="349.728" y="267.996" style="fill:#436FA5;" width="0.906" height="1.456"/>
									<rect x="334.776" y="284.322" style="fill:#436FA5;" width="0.906" height="1.456"/>
								</g>
							</g>
							<circle style="fill:#0F9BA6;" cx="328.146" cy="268.724" r="0.728"/>
						</g>
						<g>
							<g>
								<g>
									<g>
										<g>
											<rect x="330.124" y="293.11" style="fill:#0F9BA6;" width="18.239" height="1.456"/>
											<rect x="334.776" y="296.655" style="fill:#325580;" width="18.239" height="1.456"/>
											<rect x="356.356" y="296.655" style="fill:#436FA5;" width="33.012" height="1.456"/>
											<rect x="334.776" y="300.162" style="fill:#325580;" width="23.818" height="1.456"/>
											<rect x="361.934" y="300.162" style="fill:#436FA5;" width="24.533" height="1.456"/>
											<rect x="334.776" y="303.604" style="fill:#325580;" width="18.239" height="1.456"/>
											<rect x="356.356" y="303.604" style="fill:#436FA5;" width="18.268" height="1.456"/>
											<rect x="334.776" y="306.805" style="fill:#325580;" width="23.818" height="1.456"/>
											<rect x="361.934" y="306.805" style="fill:#436FA5;" width="27.433" height="1.456"/>
										</g>
									</g>
									<rect x="349.728" y="293.11" style="fill:#436FA5;" width="0.906" height="1.456"/>
									<rect x="334.776" y="309.437" style="fill:#436FA5;" width="0.906" height="1.456"/>
								</g>
							</g>
							<circle style="fill:#0F9BA6;" cx="328.146" cy="293.838" r="0.728"/>
						</g>
						<g>
							<g>
								<g>
									<g>
										<g>
											<rect x="330.124" y="318.224" style="fill:#0F9BA6;" width="18.239" height="1.456"/>
											<rect x="334.776" y="321.77" style="fill:#325580;" width="18.239" height="1.456"/>
											<rect x="356.356" y="321.77" style="fill:#436FA5;" width="33.012" height="1.456"/>
											<rect x="334.776" y="325.276" style="fill:#325580;" width="23.818" height="1.456"/>
											<rect x="361.934" y="325.276" style="fill:#436FA5;" width="24.533" height="1.456"/>
											<rect x="334.776" y="328.719" style="fill:#325580;" width="18.239" height="1.456"/>
											<rect x="356.356" y="328.719" style="fill:#436FA5;" width="18.268" height="1.456"/>
											<rect x="334.776" y="331.919" style="fill:#325580;" width="23.818" height="1.456"/>
											<rect x="361.934" y="331.919" style="fill:#436FA5;" width="27.433" height="1.456"/>
										</g>
									</g>
									<rect x="349.728" y="318.224" style="fill:#436FA5;" width="0.906" height="1.456"/>
									<rect x="334.776" y="334.551" style="fill:#436FA5;" width="0.906" height="1.456"/>
								</g>
							</g>
							<circle style="fill:#0F9BA6;" cx="328.146" cy="318.952" r="0.728"/>
						</g>
						<g>
							<g>
								<g>
									<g>
										<g>
											<rect x="330.124" y="343.339" style="fill:#0F9BA6;" width="18.239" height="1.456"/>
											<rect x="334.776" y="346.884" style="fill:#325580;" width="18.239" height="1.456"/>
											<rect x="356.356" y="346.884" style="fill:#436FA5;" width="33.012" height="1.456"/>
											<rect x="334.776" y="350.391" style="fill:#325580;" width="23.818" height="1.456"/>
											<rect x="361.934" y="350.391" style="fill:#436FA5;" width="24.533" height="1.456"/>
											<rect x="334.776" y="353.833" style="fill:#325580;" width="18.239" height="1.456"/>
											<rect x="356.356" y="353.833" style="fill:#436FA5;" width="18.268" height="1.456"/>
											<rect x="334.776" y="357.034" style="fill:#325580;" width="23.818" height="1.456"/>
											<rect x="361.934" y="357.034" style="fill:#436FA5;" width="27.433" height="1.456"/>
										</g>
									</g>
									<rect x="349.728" y="343.339" style="fill:#436FA5;" width="0.906" height="1.456"/>
									<rect x="334.776" y="359.665" style="fill:#436FA5;" width="0.906" height="1.456"/>
								</g>
							</g>
							<circle style="fill:#0F9BA6;" cx="328.146" cy="344.066" r="0.728"/>
						</g>
					</g>
				</g>
			</g>
			
				<linearGradient id="SVGID_00000049189409407390999850000017087755603559559102_" gradientUnits="userSpaceOnUse" x1="367.1535" y1="0" x2="367.1535" y2="420.3799">
				<stop  offset="0.0011" style="stop-color:#2B496F;stop-opacity:0"/>
				<stop  offset="1" style="stop-color:#1B3350"/>
			</linearGradient>
			
				<rect x="320.328" style="fill:url(#SVGID_00000049189409407390999850000017087755603559559102_);" width="93.651" height="420.38"/>
		</g>
		<path style="fill:#DBEFF2;" d="M383.042,104.981c-2.249-6.145-6.08-11.665-11.39-15.651c-7.77-6.837-17.957-10.992-29.12-10.992
			c-1.832,0-3.633,0.125-5.406,0.341c-4.013-11.135-14.669-19.097-27.188-19.097c-8.021,0-15.277,3.27-20.513,8.548
			c-4.345-7.498-12.45-12.545-21.739-12.545c-1.617,0-3.195,0.159-4.727,0.451c-6.102-18.619-23.609-32.071-44.267-32.071
			c-16.068,0-30.235,8.135-38.609,20.511c-4.419-3.875-10.205-6.228-16.545-6.228c-2.225,0-4.38,0.293-6.434,0.835
			c-0.028-0.138-0.054-0.277-0.083-0.414c-1.608-15.037-14.333-26.749-29.796-26.749c-14.267,0-26.198,9.972-29.223,23.325
			c-0.945-0.082-1.899-0.133-2.866-0.133c-13.855,0-25.685,8.642-30.413,20.826c-0.731-0.049-1.465-0.083-2.208-0.083
			c-18.016,0-32.621,14.605-32.621,32.621s14.605,32.621,32.621,32.621c4.428,0,8.647-0.886,12.496-2.484
			c3.461,14.299,16.336,24.923,31.699,24.923c9.947,0,18.848-4.458,24.832-11.478c5.372,17.285,21.493,29.837,40.546,29.837
			c13.125,0,24.855-5.958,32.642-15.315c4.967,4.03,11.295,6.449,18.19,6.449c8.981,0,17.004-4.097,22.304-10.524
			c8.111,13.702,23.033,22.896,40.109,22.896c10.661,0,20.48-3.589,28.33-9.614c7.738,6.706,17.825,10.774,28.868,10.774
			c24.362,0,44.111-19.749,44.111-44.111C386.643,116.243,385.355,110.339,383.042,104.981z"/>
		<g>
			<g>
				<path style="fill:#2E4C73;" d="M428.159,362.979h-41.407c-1.697,0-3.072-1.376-3.072-3.072v-75.841
					c0-1.697,1.375-3.072,3.072-3.072h41.407c1.697,0,3.073,1.375,3.073,3.072v75.841
					C431.232,361.604,429.856,362.979,428.159,362.979z"/>
				<rect x="386.833" y="288.868" style="fill:#DBEFF2;" width="41.245" height="64.904"/>
				<path style="opacity:0.55;fill:#243C5B;" d="M406.573,284.823c0-0.707,0.574-1.281,1.281-1.281c0.707,0,1.281,0.574,1.281,1.281
					c0,0.708-0.574,1.281-1.281,1.281C407.147,286.104,406.573,285.53,406.573,284.823z"/>
				<path style="fill:#00273E;" d="M404.701,358.108c0-1.521,1.233-2.755,2.755-2.755c1.521,0,2.754,1.233,2.754,2.755
					c0,1.521-1.233,2.754-2.754,2.754C405.934,360.862,404.701,359.629,404.701,358.108z"/>
				
					<linearGradient id="SVGID_00000090973384749759489440000011346314086459660208_" gradientUnits="userSpaceOnUse" x1="383.6795" y1="310.3731" x2="412.2921" y2="310.3731">
					<stop  offset="0" style="stop-color:#FFFFFF;stop-opacity:0.2"/>
					<stop  offset="0.9966" style="stop-color:#EDEEF0;stop-opacity:0.4"/>
				</linearGradient>
				<path style="opacity:0.52;fill:url(#SVGID_00000090973384749759489440000011346314086459660208_);" d="M412.292,280.994h-25.54
					c-1.697,0-3.073,1.375-3.073,3.072v55.686L412.292,280.994z"/>
			</g>
			<polygon style="fill:#80C1C4;" points="390.606,297.301 390.606,306.069 420.563,306.069 422.115,310.179 422.115,306.069 
				424.855,306.069 424.855,297.301 			"/>
			<polygon style="fill:#FFFFFF;" points="424.855,313.01 424.855,321.778 394.898,321.778 393.346,325.888 393.346,321.778 
				390.606,321.778 390.606,313.01 			"/>
		</g>
		<g>
			<g>
				<path style="fill:#243C5B;" d="M35.443,248.542l19.064,13.072v-47.978h17.773v145.129c-8.886,2.694-17.773,0-17.773,0v-89.187
					l-11.084-9.448h-7.419c0,0-0.642-1.329,0-2.659h4.3l-4.861-4.143C35.443,253.327,34.03,250.667,35.443,248.542z"/>
				<g>
					<path style="fill:#2E4C74;" d="M68.019,264.38v-6.448c0-0.722,1.121-0.723,1.121,0v6.448
						C69.14,265.102,68.019,265.103,68.019,264.38z"/>
					<path style="fill:#2E4C74;" d="M62.225,248.911v-6.448c0-0.722,1.121-0.723,1.121,0v6.448
						C63.346,249.633,62.225,249.634,62.225,248.911z"/>
					<path style="fill:#2E4C74;" d="M62.225,235.456v-6.448c0-0.722,1.121-0.723,1.121,0v6.448
						C63.346,236.178,62.225,236.179,62.225,235.456z"/>
					<path style="fill:#2E4C74;" d="M67.832,342.03v-73.217c0-1.273,1.121-1.275,1.121,0v73.217
						C68.953,343.304,67.832,343.306,67.832,342.03z"/>
					<path style="fill:#2E4C74;" d="M63.346,254.568v22.896c0,0.722-1.121,0.723-1.121,0v-22.896
						C62.225,253.846,63.346,253.845,63.346,254.568z"/>
					<path style="fill:#2E4C74;" d="M69.14,213.635v40.424c0,0.722-1.121,0.723-1.121,0v-40.424H69.14z"/>
					<path style="fill:#2E4C74;" d="M63.533,213.635v7.995c0,0.722-1.122,0.723-1.122,0v-7.995H63.533z"/>
					<path style="fill:#2E4C74;" d="M63.72,281.109v19.625c0,0.722-1.121,0.723-1.121,0v-19.625
						C62.599,280.387,63.72,280.386,63.72,281.109z"/>
					<path style="fill:#2E4C74;" d="M63.72,305.874v54.08c-0.38,0-0.756-0.002-1.121-0.014v-54.067
						C62.599,305.153,63.72,305.151,63.72,305.874z"/>
					<path style="fill:#2E4C74;" d="M68.767,357.574v1.992c-0.376,0.061-0.75,0.111-1.121,0.157v-2.148
						C67.645,356.852,68.767,356.851,68.767,357.574z"/>
					<path style="fill:#2E4C74;" d="M58.533,291.482v18.317c0,0.722-1.121,0.723-1.121,0v-18.317
						C57.412,290.761,58.533,290.759,58.533,291.482z"/>
					<path style="fill:#2E4C74;" d="M58.533,314.754v34.295c0,1.351-1.121,1.353-1.121,0v-34.295
						C57.412,313.403,58.533,313.401,58.533,314.754z"/>
					<path style="fill:#2E4C74;" d="M58.533,356.452v3.133c-0.4-0.057-0.772-0.116-1.121-0.177v-2.956
						C57.412,355.731,58.533,355.729,58.533,356.452z"/>
				</g>
			</g>
			<ellipse style="fill:#243C5B;" cx="63.393" cy="213.595" rx="8.886" ry="2.296"/>
			<ellipse style="fill:#243C5B;" cx="63.393" cy="213.595" rx="8.886" ry="2.296"/>
			<path style="fill:#2E4C74;" d="M63.393,214.924c4.443,0,7.119-0.809,7.807-1.329c-0.688-0.52-3.364-1.329-7.807-1.329
				s-7.119,0.809-7.807,1.329C56.274,214.115,58.95,214.924,63.393,214.924z"/>
			<path style="fill:#243C5B;" d="M63.393,213.957c1.924,0,3.483-0.157,4.658-0.363c-1.175-0.205-2.734-0.363-4.658-0.363
				s-3.483,0.157-4.658,0.363C59.91,213.8,61.469,213.957,63.393,213.957z"/>
		</g>
		<g>
			<g>
				<path style="fill:#E05A60;" d="M253.455,233.853c0,0,24.368-36.747,0-80.714c0,0-39.389,29.173-25.222,80.714H253.455z"/>
				<path style="fill:#FFFFFF;" d="M225.599,203.822c0.029-0.262,0.057-0.524,0.088-0.784c4.104,5.807,8.564,11.401,13.552,16.129
					c1.143-9.023,2.661-18.382,4.359-27.29l-0.02,0.014c-3.384-4.934-6.524-10.095-9.367-15.38c0.1-0.184,0.2-0.365,0.301-0.547
					c2.797,5.225,5.89,10.329,9.22,15.215c2.96-15.409,6.443-29.388,9.43-37.814c0.189-0.148,0.295-0.227,0.295-0.227
					c0.069,0.124,0.132,0.247,0.2,0.371c-2.964,8.333-6.427,22.207-9.376,37.532c6.955-5.293,12.95-10.124,18.117-14.604
					c0.043,0.194,0.089,0.389,0.13,0.582c-5.244,4.536-11.326,9.428-18.394,14.795c-1.72,9.018-3.256,18.507-4.406,27.643
					c7.812-2.667,15.673-6.266,23.075-10.519c-0.044,0.229-0.09,0.456-0.135,0.682c-7.392,4.214-15.229,7.78-23.012,10.419
					c-0.589,4.744-1.073,9.386-1.422,13.812h-0.524c0.355-4.495,0.848-9.214,1.451-14.036
					C234.164,215.135,229.703,209.59,225.599,203.822z"/>
			</g>
			<g>
				<path style="fill:#0F9BA6;" d="M214.18,233.853c0,0-15.415-23.245,0-51.058c0,0,24.917,18.454,15.955,51.058H214.18z"/>
				<path style="fill:#FFFFFF;" d="M231.802,214.856c-0.018-0.166-0.036-0.331-0.056-0.496c-2.596,3.673-5.417,7.212-8.573,10.203
					c-0.723-5.708-1.683-11.628-2.757-17.263l0.013,0.009c2.141-3.121,4.127-6.386,5.926-9.729c-0.063-0.116-0.127-0.231-0.19-0.346
					c-1.77,3.306-3.726,6.534-5.832,9.625c-1.873-9.748-4.076-18.59-5.965-23.92c-0.12-0.094-0.186-0.143-0.186-0.143
					c-0.044,0.078-0.083,0.156-0.126,0.235c1.875,5.271,4.066,14.048,5.931,23.742c-4.399-3.348-8.192-6.404-11.46-9.238
					c-0.027,0.123-0.056,0.246-0.082,0.368c3.317,2.87,7.165,5.964,11.636,9.359c1.088,5.705,2.06,11.707,2.787,17.487
					c-4.941-1.687-9.914-3.964-14.597-6.654c0.028,0.145,0.057,0.288,0.086,0.431c4.676,2.666,9.634,4.921,14.557,6.591
					c0.373,3.001,0.679,5.938,0.899,8.737h0.331c-0.224-2.843-0.537-5.828-0.918-8.879
					C226.384,222.013,229.206,218.505,231.802,214.856z"/>
			</g>
		</g>
		<g>
			<g>
				<g>
					<path style="fill:#E05A60;" d="M435.751,420.38c0,0,37.406-56.408,0-123.898c0,0-60.464,44.781-38.717,123.898H435.751z"/>
					<path style="fill:#FFFFFF;" d="M392.99,374.282c0.044-0.402,0.087-0.804,0.135-1.203c6.3,8.913,13.146,17.501,20.803,24.759
						c1.755-13.85,4.085-28.216,6.69-41.891l-0.031,0.021c-5.195-7.574-10.015-15.497-14.379-23.609
						c0.153-0.282,0.308-0.561,0.462-0.84c4.294,8.021,9.041,15.855,14.153,23.356c4.544-23.654,9.891-45.112,14.475-58.045
						c0.291-0.228,0.452-0.348,0.452-0.348c0.105,0.19,0.202,0.38,0.307,0.57c-4.551,12.791-9.866,34.088-14.393,57.613
						c10.676-8.125,19.878-15.541,27.81-22.418c0.066,0.297,0.136,0.596,0.2,0.893c-8.049,6.963-17.386,14.473-28.236,22.711
						c-2.64,13.843-4.998,28.408-6.763,42.433c11.991-4.094,24.058-9.619,35.421-16.147c-0.068,0.351-0.137,0.7-0.208,1.047
						c-11.347,6.469-23.377,11.943-35.325,15.993c-0.905,7.282-1.647,14.408-2.182,21.202h-0.804
						c0.544-6.9,1.302-14.144,2.227-21.545C406.138,391.648,399.29,383.135,392.99,374.282z"/>
				</g>
				<g>
					<path style="fill:#0F9BA6;" d="M383.396,420.38c0,0-14.97-22.575,0-49.584c0,0,24.198,17.922,15.495,49.584H383.396z"/>
					<path style="fill:#FFFFFF;" d="M400.509,401.931c-0.017-0.161-0.035-0.322-0.054-0.482c-2.521,3.567-5.261,7.004-8.325,9.909
						c-0.702-5.543-1.635-11.292-2.678-16.765l0.012,0.008c2.079-3.031,4.008-6.202,5.755-9.448
						c-0.061-0.113-0.123-0.224-0.185-0.336c-1.719,3.21-3.618,6.345-5.664,9.347c-1.819-9.466-3.958-18.054-5.793-23.23
						c-0.116-0.091-0.181-0.139-0.181-0.139c-0.042,0.076-0.081,0.152-0.123,0.228c1.821,5.119,3.948,13.642,5.76,23.057
						c-4.272-3.252-7.955-6.219-11.13-8.972c-0.026,0.119-0.054,0.239-0.08,0.357c3.221,2.787,6.958,5.792,11.3,9.089
						c1.057,5.54,2,11.369,2.707,16.982c-4.799-1.638-9.628-3.85-14.176-6.462c0.027,0.141,0.055,0.28,0.083,0.419
						c4.541,2.589,9.356,4.78,14.137,6.401c0.362,2.914,0.659,5.766,0.874,8.485h0.322c-0.218-2.761-0.521-5.66-0.891-8.623
						C395.247,408.881,397.988,405.474,400.509,401.931z"/>
				</g>
			</g>
			<g>
				<g>
					<path style="fill:#E05A60;" d="M88.972,420.38c0,0-43.636-65.804,0-144.535c0,0,70.535,52.24,45.166,144.535H88.972z"/>
					<path style="fill:#FFFFFF;" d="M138.855,366.603c-0.051-0.469-0.102-0.938-0.157-1.403
						c-7.349,10.398-15.335,20.416-24.268,28.883c-2.047-16.157-4.765-32.916-7.805-48.869l0.036,0.025
						c6.06-8.835,11.683-18.078,16.774-27.541c-0.179-0.329-0.359-0.654-0.539-0.98c-5.009,9.357-10.547,18.496-16.51,27.246
						c-5.301-27.594-11.538-52.626-16.887-67.714c-0.339-0.265-0.527-0.406-0.527-0.406c-0.123,0.222-0.236,0.443-0.358,0.665
						c5.309,14.922,11.509,39.766,16.79,67.21c-12.454-9.478-23.189-18.129-32.442-26.152c-0.077,0.347-0.159,0.696-0.233,1.042
						c9.39,8.123,20.282,16.884,32.939,26.493c3.08,16.149,5.831,33.14,7.89,49.501c-13.988-4.776-28.065-11.221-41.321-18.836
						c0.079,0.409,0.16,0.816,0.242,1.221c13.238,7.546,27.271,13.932,41.209,18.657c1.055,8.495,1.922,16.808,2.546,24.734h0.938
						c-0.635-8.049-1.519-16.5-2.598-25.134C123.517,386.862,131.506,376.931,138.855,366.603z"/>
				</g>
				<g>
					<path style="fill:#0F9BA6;" d="M100.232,420.38c3.18-65.177-51.396-89.909-51.396-89.909
						c-13.299,43.93,4.586,76.144,14.765,89.909H100.232z"/>
					<path style="fill:#FFFFFF;" d="M82.606,406.851c-10.109-1.187-20.52-3.485-30.547-6.689c0.113,0.264,0.226,0.526,0.34,0.787
						c10.005,3.161,20.378,5.424,30.445,6.585c1.522,4.363,2.946,8.663,4.248,12.846h0.673c-1.34-4.31-2.808-8.744-4.382-13.244
						c4.804-6.94,8.742-14.784,12.191-22.802c-0.103-0.308-0.204-0.617-0.31-0.922c-3.439,8.065-7.363,15.967-12.148,22.962
						c-3.721-10.58-7.98-21.467-12.34-31.765l0.028,0.011c2.799-6.826,5.243-13.863,7.299-20.972
						c-0.168-0.196-0.336-0.388-0.505-0.581c-2.015,7.025-4.418,13.98-7.164,20.735c-7.569-17.807-15.398-33.753-21.185-43.134
						c-0.267-0.129-0.414-0.197-0.414-0.197c-0.051,0.167-0.095,0.332-0.145,0.499c5.737,9.275,13.513,25.101,21.048,42.809
						c-9.758-4.575-18.239-8.842-25.631-12.901c-0.002,0.245-0.006,0.491-0.006,0.735c7.499,4.107,16.101,8.425,26.015,13.059
						C74.532,385.096,78.847,396.135,82.606,406.851z"/>
				</g>
			</g>
		</g>
		<g>
			<path style="fill:#262744;" d="M242.753,240.302c-0.81,0-1.47-0.66-1.47-1.47c0-0.811,0.66-1.47,1.47-1.47
				c0.811,0,1.471,0.66,1.471,1.47C244.224,239.643,243.564,240.302,242.753,240.302z M242.753,238.238
				c-0.328,0-0.594,0.267-0.594,0.594s0.266,0.594,0.594,0.594c0.328,0,0.595-0.266,0.595-0.594S243.081,238.238,242.753,238.238z"
				/>
		</g>
		<g>
			<rect x="262.962" y="249.953" style="fill:#FFFFFF;" width="4.49" height="0.657"/>
		</g>
		<g>
			<g>
				<path style="fill:#E05A60;" d="M159.681,130.875h-34.08c-0.481,0-0.87-0.39-0.87-0.87v-9.616c0-0.481,0.39-0.87,0.87-0.87h34.08
					c0.481,0,0.87,0.39,0.87,0.87v9.616C160.551,130.486,160.161,130.875,159.681,130.875z"/>
				<text transform="matrix(1 0 0 1 129.5942 127.4094)" style="fill:#FFFFFF; font-family:'MyriadPro-Bold'; font-size:7.5363px;">&lt;body&gt;</text>
			</g>
			<g>
				<path style="fill:#E05A60;" d="M159.681,206.657h-34.08c-0.481,0-0.87-0.39-0.87-0.87v-9.616c0-0.481,0.39-0.87,0.87-0.87h34.08
					c0.481,0,0.87,0.39,0.87,0.87v9.616C160.551,206.268,160.161,206.657,159.681,206.657z"/>
				<text transform="matrix(1 0 0 1 127.8218 203.1916)" style="fill:#FFFFFF; font-family:'MyriadPro-Bold'; font-size:7.5363px;">&lt;/body&gt;</text>
			</g>
			<path style="fill:#0F9BA6;" d="M170.44,144.539h-34.08c-0.481,0-0.87-0.39-0.87-0.87v-9.616c0-0.481,0.39-0.87,0.87-0.87h34.08
				c0.481,0,0.87,0.39,0.87,0.87v9.616C171.31,144.15,170.92,144.539,170.44,144.539z"/>
			<text transform="matrix(1 0 0 1 143.6323 141.0729)" style="fill:#FFFFFF; font-family:'MyriadPro-Bold'; font-size:7.5363px;">&lt;div&gt;</text>
			<g>
				<path style="fill:#0F9BA6;" d="M170.059,159.906h-23.118c-0.481,0-0.87-0.39-0.87-0.87v-9.616c0-0.481,0.39-0.87,0.87-0.87
					h23.118c0.481,0,0.87,0.39,0.87,0.87v9.616C170.929,159.517,170.539,159.906,170.059,159.906z"/>
				<text transform="matrix(1 0 0 1 151.7544 156.4401)" style="fill:#FFFFFF; font-family:'MyriadPro-Bold'; font-size:7.5363px;">&lt;p&gt;</text>
				<g>
					<path style="fill:#0F9BA6;" d="M170.059,175.273h-23.118c-0.481,0-0.87-0.39-0.87-0.87v-9.616c0-0.481,0.39-0.87,0.87-0.87
						h23.118c0.481,0,0.87,0.39,0.87,0.87v9.616C170.929,174.884,170.539,175.273,170.059,175.273z"/>
					
						<text transform="matrix(1 0 0 1 150.9351 171.8073)" style="fill:#FFFFFF; font-family:'MyriadPro-Bold'; font-size:7.5363px;">&lt;/p&gt;</text>
				</g>
			</g>
			<path style="fill:#0F9BA6;" d="M170.44,190.641h-34.08c-0.481,0-0.87-0.39-0.87-0.87v-9.616c0-0.481,0.39-0.87,0.87-0.87h34.08
				c0.481,0,0.87,0.39,0.87,0.87v9.616C171.31,190.251,170.92,190.641,170.44,190.641z"/>
			<text transform="matrix(1 0 0 1 142.3853 187.1745)" style="fill:#FFFFFF; font-family:'MyriadPro-Bold'; font-size:7.5363px;">&lt;/div&gt;</text>
		</g>
		<g>
			<g>
				<rect x="377.292" y="233.473" style="fill:#DBEFF2;" width="72.342" height="41.135"/>
				<rect x="377.292" y="264.506" style="fill:#80C1C4;" width="72.342" height="10.103"/>
				<g>
					<rect x="379.503" y="268.588" style="fill:#FFFFFF;" width="57.888" height="1.934"/>
					<rect x="379.503" y="268.588" style="fill:#E05A60;" width="28.924" height="1.934"/>
					<g>
						<g>
							<g>
								<polygon style="fill:#FFFFFF;" points="444.28,269.051 444.038,269.051 444.038,268.588 444.904,268.588 444.904,268.83 
									444.28,268.83 								"/>
							</g>
							<g>
								<polygon style="fill:#FFFFFF;" points="447.182,269.051 447.424,269.051 447.424,268.588 446.558,268.588 446.558,268.83 
									447.182,268.83 								"/>
							</g>
						</g>
						<g>
							<g>
								<polygon style="fill:#FFFFFF;" points="447.182,270.059 447.424,270.059 447.424,270.522 446.558,270.522 446.558,270.28 
									447.182,270.28 								"/>
							</g>
							<g>
								<polygon style="fill:#FFFFFF;" points="444.28,270.059 444.038,270.059 444.038,270.522 444.904,270.522 444.904,270.28 
									444.28,270.28 								"/>
							</g>
						</g>
					</g>
					<g>
						<rect x="438.887" y="268.588" style="fill:#E05A60;" width="3.656" height="1.934"/>
						<polygon style="fill:#FFFFFF;" points="441.432,269.555 440.814,269.882 440.197,270.208 440.197,269.555 440.197,268.902 
							440.814,269.228 						"/>
					</g>
				</g>
				<rect x="377.292" y="229.392" style="fill:#80C1C4;" width="72.342" height="4.081"/>
			</g>
			<g>
				<path style="fill:#DBEFF2;" d="M404.432,242.549c3.941-0.018,7.332,2.906,7.949,6.751c0.339-0.091,0.692-0.138,1.055-0.14
					c0.369-0.002,0.745,0.044,1.122,0.137c0.649-3.814,3.943-6.642,7.863-6.66c4.421-0.021,8.034,3.559,8.055,7.98
					c0.021,4.421-3.559,8.034-7.98,8.055c-4.321,0.02-7.871-3.4-8.046-7.718c-0.343-0.114-0.68-0.17-1.005-0.169
					c-0.423,0.002-0.753,0.102-0.975,0.199c-0.22,4.194-3.738,7.58-7.962,7.599c-4.421,0.021-8.034-3.559-8.055-7.98
					C396.431,246.182,400.011,242.569,404.432,242.549z"/>
				<path style="opacity:0.43;fill:#FFFFFF;" d="M427.092,244.12c0.551,0.393,1.053,0.851,1.489,1.367
					c-3.743,3.778-7.485,7.555-11.228,11.333c-0.518-0.43-0.973-0.931-1.37-1.477C419.7,251.616,423.424,247.895,427.092,244.12z"/>
				<path style="opacity:0.43;fill:#FFFFFF;" d="M407.786,243.479c0.048-0.048,0.065-0.102,0.067-0.154
					c0.784,0.373,1.506,0.863,2.131,1.458l-11.258,11.363c-0.586-0.603-1.072-1.301-1.447-2.062L407.786,243.479z"/>
				<path style="opacity:0.43;fill:#FFFFFF;" d="M411.219,246.289c0.295,0.462,0.547,0.953,0.745,1.472l-10.233,10.329
					c-0.522-0.192-1.017-0.438-1.483-0.728L411.219,246.289z"/>
				<path style="opacity:0.43;fill:#FFFFFF;" d="M420.188,258.337c-0.244-0.073-0.482-0.158-0.716-0.253l10.389-10.486
					c0.092,0.222,0.174,0.449,0.247,0.68C426.827,251.657,423.515,255.005,420.188,258.337z"/>
				<g>
					<path style="fill:none;" d="M404.499,256.958c-3.525,0.016-6.406-2.838-6.422-6.362c-0.016-3.525,2.838-6.406,6.363-6.422
						c3.525-0.016,6.406,2.838,6.422,6.363C410.878,254.061,408.024,256.941,404.499,256.958z"/>
					<path style="fill:none;" d="M422.488,257.047c-3.525,0.016-6.406-2.838-6.422-6.363c-0.001-0.13,0.008-0.258,0.016-0.386
						l0.17-0.343l-0.135-0.056c0.376-3.17,3.091-5.622,6.311-5.637c3.525-0.016,6.406,2.838,6.422,6.363
						C428.867,254.149,426.012,257.03,422.488,257.047z"/>
					<path style="fill:#E05A60;" d="M396.452,250.603c0.021,4.421,3.634,8.001,8.055,7.98c4.224-0.02,7.742-3.405,7.962-7.599
						c0.222-0.097,0.552-0.197,0.975-0.199c0.325-0.002,0.662,0.055,1.005,0.169c0.175,4.318,3.725,7.738,8.046,7.718
						c4.421-0.021,8-3.634,7.98-8.055c-0.021-4.421-3.634-8.001-8.055-7.98c-3.92,0.018-7.214,2.846-7.863,6.66
						c-0.377-0.092-0.753-0.138-1.122-0.137c-0.363,0.002-0.716,0.048-1.055,0.14c-0.617-3.845-4.008-6.77-7.949-6.751
						C400.011,242.569,396.431,246.182,396.452,250.603z M410.862,250.536c0.016,3.525-2.838,6.406-6.362,6.422
						c-3.525,0.016-6.406-2.838-6.422-6.362c-0.016-3.525,2.838-6.406,6.363-6.422C407.964,244.157,410.845,247.011,410.862,250.536
						z M428.85,250.624c0.016,3.525-2.838,6.406-6.362,6.422c-1.516,0.007-3.003-0.536-4.159-1.516
						c-1.63-1.382-2.464-3.512-2.212-5.632c0.376-3.17,3.091-5.621,6.311-5.636C425.953,244.246,428.834,247.1,428.85,250.624z"/>
				</g>
			</g>
		</g>
		<g>
			<g>
				<g>
					<path style="fill:#E7E7E7;" d="M93.483,200.119H32.462c-0.927,0-1.679-0.752-1.679-1.679v-36.49
						c0-0.927,0.752-1.679,1.679-1.679h61.021c0.927,0,1.679,0.752,1.679,1.679v36.49C95.162,199.367,94.41,200.119,93.483,200.119z
						"/>
					<g>
						
							<rect x="51.766" y="156.723" transform="matrix(-1.836970e-16 1 -1 -1.836970e-16 245.7677 119.823)" style="fill:#7FB5B8;" width="22.412" height="52.144"/>
						<g>
							<path style="fill:#E05A60;" d="M36.9,166.355c0-1.019,0.826-1.844,1.844-1.844c1.019,0,1.844,0.826,1.844,1.844
								c0,1.019-0.826,1.844-1.844,1.844C37.726,168.199,36.9,167.373,36.9,166.355z"/>
							<path style="fill:#D0E3E6;" d="M43.935,166.355c0-1.019,0.826-1.844,1.844-1.844s1.844,0.826,1.844,1.844
								c0,1.019-0.826,1.844-1.844,1.844S43.935,167.373,43.935,166.355z"/>
							<path style="fill:#0F9BA6;" d="M50.97,166.355c0-1.019,0.826-1.844,1.844-1.844c1.019,0,1.844,0.826,1.844,1.844
								c0,1.019-0.826,1.844-1.844,1.844C51.796,168.199,50.97,167.373,50.97,166.355z"/>
						</g>
					</g>
				</g>
				<rect x="63.156" y="165.432" style="fill:#FFFFFF;" width="25.889" height="1.844"/>
			</g>
			<text transform="matrix(1 0 0 1 50.9692 186.7443)" style="fill:#FFFFFF; font-family:'MyriadPro-Bold'; font-size:14.1375px;">CSS</text>
		</g>
		<g>
			<g>
				<g>
					<path style="fill:#FFFFFF;" d="M223.438,95.357h-61.021c-0.927,0-1.679-0.752-1.679-1.679v-36.49
						c0-0.927,0.752-1.679,1.679-1.679h61.021c0.927,0,1.679,0.752,1.679,1.679v36.49C225.117,94.606,224.365,95.357,223.438,95.357
						z"/>
					<g>
						
							<rect x="181.722" y="51.962" transform="matrix(-1.836970e-16 1 -1 -1.836970e-16 270.962 -114.8937)" style="fill:#E05A60;" width="22.412" height="52.144"/>
						<g>
							<path style="fill:#E05A60;" d="M166.856,61.594c0-1.019,0.826-1.845,1.844-1.845c1.019,0,1.844,0.826,1.844,1.845
								c0,1.019-0.826,1.844-1.844,1.844C167.681,63.438,166.856,62.612,166.856,61.594z"/>
							<path style="fill:#D0E3E6;" d="M173.89,61.594c0-1.019,0.826-1.845,1.844-1.845c1.019,0,1.844,0.826,1.844,1.845
								c0,1.019-0.826,1.844-1.844,1.844C174.716,63.438,173.89,62.612,173.89,61.594z"/>
							<path style="fill:#0F9BA6;" d="M180.925,61.594c0-1.019,0.826-1.845,1.844-1.845c1.019,0,1.844,0.826,1.844,1.845
								c0,1.019-0.826,1.844-1.844,1.844C181.751,63.438,180.925,62.612,180.925,61.594z"/>
						</g>
					</g>
				</g>
				<rect x="193.111" y="60.671" style="fill:#D0E3E6;" width="25.889" height="1.844"/>
			</g>
			<text transform="matrix(1 0 0 1 177.5786 81.9831)" style="fill:#FFFFFF; font-family:'MyriadPro-Bold'; font-size:14.1375px;">html</text>
		</g>
		<g>
			<g>
				<g>
					<path style="fill:#243C5B;" d="M220.831,154.245l-19.064,13.071v-63.258h-17.772v145.129c8.886,2.694,17.772,0,17.772,0
						v-73.908l11.084-9.448h7.419c0,0,0.642-1.329,0-2.659h-4.3l4.861-4.143C220.831,159.03,222.244,156.37,220.831,154.245z"/>
					<g>
						<path style="fill:#2E4C74;" d="M188.255,154.805v-6.448c0-0.722-1.122-0.723-1.122,0v6.448
							C187.133,155.526,188.255,155.527,188.255,154.805z"/>
						<path style="fill:#2E4C74;" d="M194.049,139.336v-6.448c0-0.722-1.121-0.723-1.121,0v6.448
							C192.928,140.057,194.049,140.058,194.049,139.336z"/>
						<path style="fill:#2E4C74;" d="M194.049,125.881v-6.448c0-0.722-1.121-0.723-1.121,0v6.448
							C192.928,126.602,194.049,126.604,194.049,125.881z"/>
						<path style="fill:#2E4C74;" d="M188.442,232.455v-73.217c0-1.273-1.122-1.275-1.122,0v73.217
							C187.32,233.728,188.442,233.73,188.442,232.455z"/>
						<path style="fill:#2E4C74;" d="M192.928,144.992v22.896c0,0.722,1.121,0.723,1.121,0v-22.896
							C194.049,144.27,192.928,144.269,192.928,144.992z"/>
						<path style="fill:#2E4C74;" d="M187.134,104.06v40.424c0,0.721,1.121,0.723,1.121,0V104.06H187.134z"/>
						<path style="fill:#2E4C74;" d="M192.741,104.06v7.995c0,0.722,1.121,0.723,1.121,0v-7.995H192.741z"/>
						<path style="fill:#2E4C74;" d="M192.554,171.533v19.625c0,0.722,1.122,0.723,1.122,0v-19.625
							C193.675,170.811,192.554,170.81,192.554,171.533z"/>
						<path style="fill:#2E4C74;" d="M192.554,196.298v54.08c0.38,0,0.756-0.002,1.122-0.014v-54.067
							C193.675,195.577,192.554,195.576,192.554,196.298z"/>
						<path style="fill:#2E4C74;" d="M187.507,247.998v1.992c0.376,0.061,0.75,0.111,1.121,0.157v-2.148
							C188.629,247.276,187.507,247.275,187.507,247.998z"/>
						<path style="fill:#2E4C74;" d="M197.74,181.906v18.317c0,0.722,1.122,0.723,1.122,0v-18.317
							C198.862,181.185,197.74,181.184,197.74,181.906z"/>
						<path style="fill:#2E4C74;" d="M197.74,205.178v34.295c0,1.351,1.122,1.353,1.122,0v-34.295
							C198.862,203.827,197.74,203.825,197.74,205.178z"/>
						<path style="fill:#2E4C74;" d="M197.74,246.876v3.133c0.4-0.057,0.772-0.116,1.122-0.177v-2.956
							C198.862,246.155,197.74,246.154,197.74,246.876z"/>
					</g>
				</g>
				<ellipse style="fill:#243C5B;" cx="192.881" cy="104.019" rx="8.886" ry="2.296"/>
				<ellipse style="fill:#243C5B;" cx="192.881" cy="104.019" rx="8.886" ry="2.296"/>
				<path style="fill:#2E4C74;" d="M192.881,105.348c-4.443,0-7.119-0.809-7.807-1.329c0.688-0.52,3.364-1.329,7.807-1.329
					c4.443,0,7.119,0.809,7.807,1.329C200,104.539,197.324,105.348,192.881,105.348z"/>
				<path style="fill:#243C5B;" d="M192.881,104.382c-1.924,0-3.483-0.157-4.658-0.363c1.175-0.205,2.734-0.363,4.658-0.363
					s3.483,0.157,4.658,0.363C196.364,104.224,194.805,104.382,192.881,104.382z"/>
			</g>
			<g>
				<g>
					<g>
						<g>
							<path style="fill:#0F9BA6;" d="M500,121.849c-2.781,1.364-19.499,9.012-23.366,10.747
								c-25.402,11.39-53.702,17.794-84.115,19.032c-28.472,1.157-57.416-2.214-86.027-10.026
								c-12.097-3.302-24.231-8.217-35.965-12.97c-20.881-8.457-42.472-17.202-65.342-17.641c-0.01,0-0.02,0-0.029,0
								c-0.787,0-1.434,0.631-1.449,1.422c-0.015,0.801,0.621,1.463,1.422,1.478c22.335,0.429,43.674,9.072,64.31,17.43
								c11.812,4.784,24.028,9.732,36.289,13.08c25.198,6.879,50.653,10.35,75.83,10.35c3.7,0,7.394-0.075,11.08-0.225
								c30.784-1.254,59.444-7.742,85.184-19.284c3.317-1.488,19.709-8.976,22.179-10.168V121.849z"/>
						</g>
						<g>
							<path style="fill:#44797D;" d="M210.256,111.253c-1.684-0.126-3.372-0.229-5.07-0.261c-0.01,0-0.02,0-0.029,0
								c-0.787,0-1.434,0.631-1.449,1.422c-0.015,0.801,0.621,1.463,1.422,1.478c1.657,0.032,3.305,0.132,4.95,0.256
								C210.314,113.199,210.416,112.241,210.256,111.253z"/>
						</g>
					</g>
					<g>
						<path style="fill:#E05A60;" d="M207.55,115.51h-5.783v-5.783h5.783C208.835,112.619,207.55,115.51,207.55,115.51z"/>
						<g>
							<path style="fill:#243C5B;" d="M206.926,109.728h-0.806c1.284,2.891,0,5.783,0,5.783h0.806
								C206.926,115.51,208.21,112.619,206.926,109.728z"/>
						</g>
					</g>
				</g>
				<g>
					<g>
						<g>
							<path style="fill:#E05A60;" d="M500,129.744c-2.785,1.366-19.502,9.014-23.366,10.746
								c-25.402,11.391-53.702,17.794-84.115,19.033c-28.472,1.156-57.415-2.213-86.027-10.025
								c-12.097-3.302-24.231-8.217-35.965-12.97c-20.881-8.457-42.472-17.202-65.342-17.641l-0.057,2.899
								c22.335,0.429,43.674,9.072,64.31,17.43c11.812,4.785,24.028,9.732,36.289,13.08c25.198,6.879,50.652,10.35,75.83,10.35
								c3.699,0,7.394-0.075,11.08-0.225c30.784-1.254,59.444-7.742,85.183-19.284c3.315-1.486,19.707-8.974,22.18-10.167V129.744z"
								/>
						</g>
						<g>
							<path style="fill:#CC585D;" d="M209.605,119.094c-1.468-0.1-2.94-0.179-4.42-0.207l-0.057,2.899
								c1.465,0.028,2.924,0.107,4.381,0.208C209.768,121.039,209.855,120.063,209.605,119.094z"/>
						</g>
					</g>
					<g>
						<path style="fill:#0F9BA6;" d="M207.55,123.228h-5.783v-5.783h5.783C208.835,120.337,207.55,123.228,207.55,123.228z"/>
						<g>
							<path style="fill:#243C5B;" d="M206.926,117.445h-0.806c1.284,2.891,0,5.783,0,5.783h0.806
								C206.926,123.228,208.21,120.337,206.926,117.445z"/>
						</g>
					</g>
				</g>
			</g>
		</g>
		<g>
			<g>
				<g>
					<g>
						<path style="fill:#80C1C4;" d="M367.931,410.604H121.645c-0.694,0-1.257-0.563-1.257-1.257V240.668
							c0-3.745,3.036-6.781,6.781-6.781h235.239c3.745,0,6.781,3.036,6.781,6.781v168.678
							C369.188,410.041,368.626,410.604,367.931,410.604z"/>
						
							<rect x="165.191" y="206.605" transform="matrix(-1.836970e-16 1 -1 -1.836970e-16 567.0334 77.4571)" style="fill:#DBEFF2;" width="159.195" height="231.28"/>
						<rect x="129.148" y="242.648" style="fill:#E05A60;" width="231.28" height="13.654"/>
					</g>
					<g>
						<path style="fill:#2A486C;" d="M391.283,420.532H98.294c-3.119,0-5.648-2.529-5.648-5.648v-3.47
							c0-0.448,0.363-0.811,0.811-0.811h302.662c0.448,0,0.811,0.363,0.811,0.811v3.47
							C396.93,418.004,394.402,420.532,391.283,420.532z"/>
						<path style="fill:#1B3350;" d="M93.349,417.612c0.962,1.741,2.815,2.92,4.945,2.92h292.989c2.129,0,3.982-1.18,4.944-2.92
							H93.349z"/>
						<path style="fill:#1B3350;" d="M261.068,414.546h-32.56c-2.177,0-3.942-1.765-3.942-3.942l0,0h40.445l0,0
							C265.01,412.781,263.245,414.546,261.068,414.546z"/>
					</g>
					
						<linearGradient id="SVGID_00000182496860349734213840000002369667062607841676_" gradientUnits="userSpaceOnUse" x1="120.3878" y1="303.3333" x2="197.736" y2="303.3333">
						<stop  offset="0" style="stop-color:#FFFFFF;stop-opacity:0.2"/>
						<stop  offset="0.9966" style="stop-color:#EDEEF0;stop-opacity:0.4"/>
					</linearGradient>
					<path style="fill:url(#SVGID_00000182496860349734213840000002369667062607841676_);" d="M197.736,233.887h-70.567
						c-3.745,0-6.781,3.036-6.781,6.781v132.111L197.736,233.887z"/>
				</g>
				<g>
					<g>
						<g>
							<path style="fill:#FFFFFF;" d="M348.418,301.477H190.556c-0.678,0-1.227-0.549-1.227-1.227v-36.62
								c0-0.678,0.549-1.227,1.227-1.227h157.862c0.678,0,1.227,0.549,1.227,1.227v36.62
								C349.645,300.928,349.096,301.477,348.418,301.477z"/>
							<g>
								<g>
									<rect x="192.941" y="265.46" style="fill:#DBEFF2;" width="26.426" height="4.117"/>
									<rect x="192.941" y="271.844" style="fill:#DBEFF2;" width="26.426" height="2.059"/>
									<rect x="224.047" y="265.46" style="fill:#DBEFF2;" width="26.426" height="4.117"/>
								</g>
								<rect x="192.941" y="278.471" style="fill:#DBEFF2;" width="150.984" height="19.95"/>
							</g>
						</g>
						<g>
							<path style="fill:#FFFFFF;" d="M348.418,346.352H190.556c-0.678,0-1.227-0.549-1.227-1.227v-36.62
								c0-0.678,0.549-1.227,1.227-1.227h157.862c0.678,0,1.227,0.549,1.227,1.227v36.62
								C349.645,345.802,349.096,346.352,348.418,346.352z"/>
							<g>
								<g>
									<rect x="192.941" y="310.334" style="fill:#DBEFF2;" width="26.426" height="4.117"/>
									<rect x="192.941" y="316.718" style="fill:#DBEFF2;" width="26.426" height="2.059"/>
									<rect x="224.047" y="310.334" style="fill:#DBEFF2;" width="26.426" height="4.117"/>
								</g>
								<rect x="192.941" y="323.345" style="fill:#DBEFF2;" width="150.984" height="19.95"/>
							</g>
						</g>
						<g>
							<path style="fill:#FFFFFF;" d="M348.418,391.227H190.556c-0.678,0-1.227-0.549-1.227-1.227v-36.62
								c0-0.678,0.549-1.227,1.227-1.227h157.862c0.678,0,1.227,0.549,1.227,1.227v36.62
								C349.645,390.677,349.096,391.227,348.418,391.227z"/>
							<g>
								<g>
									<rect x="192.941" y="355.209" style="fill:#DBEFF2;" width="26.426" height="4.117"/>
									<rect x="192.941" y="361.593" style="fill:#DBEFF2;" width="26.426" height="2.059"/>
									<rect x="224.047" y="355.209" style="fill:#DBEFF2;" width="26.426" height="4.117"/>
								</g>
								<rect x="192.941" y="368.22" style="fill:#DBEFF2;" width="150.984" height="19.95"/>
							</g>
						</g>
					</g>
					<g>
						<g>
							<g>
								<g>
									<path style="fill:#7FB5B8;" d="M170.792,351.119h-7.282c-1.643,0-2.975-1.332-2.975-2.975l0,0
										c0-1.643,1.332-2.975,2.975-2.975h7.282c1.643,0,2.975,1.332,2.975,2.975l0,0
										C173.767,349.787,172.435,351.119,170.792,351.119z"/>
									<g>
										<path style="fill:#FFFFFF;" d="M161.227,348.144c0-1.229,0.996-2.225,2.225-2.225c1.229,0,2.225,0.996,2.225,2.225
											s-0.996,2.225-2.225,2.225C162.223,350.369,161.227,349.373,161.227,348.144z"/>
										<path style="fill:#F7F7F8;" d="M161.728,348.144c0-0.952,0.772-1.724,1.724-1.724c0.952,0,1.724,0.772,1.724,1.724
											c0,0.952-0.772,1.724-1.724,1.724C162.5,349.868,161.728,349.096,161.728,348.144z"/>
									</g>
								</g>
								<g>
									<path style="fill:#E05A60;" d="M163.509,353.186h7.282c1.643,0,2.975,1.332,2.975,2.975l0,0
										c0,1.643-1.332,2.975-2.975,2.975h-7.282c-1.643,0-2.975-1.332-2.975-2.975l0,0
										C160.534,354.518,161.866,353.186,163.509,353.186z"/>
									<g>
										<path style="fill:#FFFFFF;" d="M173.074,356.161c0,1.229-0.996,2.225-2.225,2.225c-1.229,0-2.225-0.996-2.225-2.225
											c0-1.229,0.996-2.225,2.225-2.225C172.078,353.936,173.074,354.932,173.074,356.161z"/>
										<path style="fill:#F7F7F8;" d="M172.573,356.161c0,0.952-0.772,1.724-1.724,1.724c-0.952,0-1.724-0.772-1.724-1.724
											c0-0.952,0.772-1.724,1.724-1.724C171.801,354.437,172.573,355.208,172.573,356.161z"/>
									</g>
								</g>
							</g>
							<g>
								<g>
									<path style="fill:#7FB5B8;" d="M170.792,367.187h-7.282c-1.643,0-2.975-1.332-2.975-2.975l0,0
										c0-1.643,1.332-2.975,2.975-2.975h7.282c1.643,0,2.975,1.332,2.975,2.975l0,0
										C173.767,365.855,172.435,367.187,170.792,367.187z"/>
									<g>
										<path style="fill:#FFFFFF;" d="M161.227,364.212c0-1.229,0.996-2.225,2.225-2.225c1.229,0,2.225,0.996,2.225,2.225
											s-0.996,2.225-2.225,2.225C162.223,366.437,161.227,365.44,161.227,364.212z"/>
										<path style="fill:#F7F7F8;" d="M161.728,364.212c0-0.952,0.772-1.724,1.724-1.724c0.952,0,1.724,0.772,1.724,1.724
											c0,0.952-0.772,1.724-1.724,1.724C162.5,365.936,161.728,365.164,161.728,364.212z"/>
									</g>
								</g>
								<g>
									<path style="fill:#E05A60;" d="M163.509,369.254h7.282c1.643,0,2.975,1.332,2.975,2.975l0,0
										c0,1.643-1.332,2.975-2.975,2.975h-7.282c-1.643,0-2.975-1.332-2.975-2.975l0,0
										C160.534,370.586,161.866,369.254,163.509,369.254z"/>
									<g>
										<path style="fill:#FFFFFF;" d="M173.074,372.229c0,1.229-0.996,2.225-2.225,2.225c-1.229,0-2.225-0.996-2.225-2.225
											c0-1.229,0.996-2.225,2.225-2.225C172.078,370.004,173.074,371,173.074,372.229z"/>
										<path style="fill:#F7F7F8;" d="M172.573,372.229c0,0.952-0.772,1.724-1.724,1.724c-0.952,0-1.724-0.772-1.724-1.724
											c0-0.952,0.772-1.724,1.724-1.724C171.801,370.505,172.573,371.276,172.573,372.229z"/>
									</g>
								</g>
							</g>
							<g>
								<g>
									<path style="fill:#7FB5B8;" d="M170.792,383.254h-7.282c-1.643,0-2.975-1.332-2.975-2.975l0,0
										c0-1.643,1.332-2.975,2.975-2.975h7.282c1.643,0,2.975,1.332,2.975,2.975l0,0
										C173.767,381.923,172.435,383.254,170.792,383.254z"/>
									<g>
										<path style="fill:#FFFFFF;" d="M161.227,380.28c0-1.229,0.996-2.225,2.225-2.225c1.229,0,2.225,0.996,2.225,2.225
											s-0.996,2.225-2.225,2.225C162.223,382.504,161.227,381.508,161.227,380.28z"/>
										<path style="fill:#F7F7F8;" d="M161.728,380.28c0-0.952,0.772-1.724,1.724-1.724c0.952,0,1.724,0.772,1.724,1.724
											s-0.772,1.724-1.724,1.724C162.5,382.004,161.728,381.232,161.728,380.28z"/>
									</g>
								</g>
								<g>
									<path style="fill:#E05A60;" d="M163.509,385.322h7.282c1.643,0,2.975,1.332,2.975,2.975l0,0
										c0,1.643-1.332,2.975-2.975,2.975h-7.282c-1.643,0-2.975-1.332-2.975-2.975l0,0
										C160.534,386.654,161.866,385.322,163.509,385.322z"/>
									<g>
										<path style="fill:#FFFFFF;" d="M173.074,388.297c0,1.229-0.996,2.225-2.225,2.225c-1.229,0-2.225-0.996-2.225-2.225
											c0-1.229,0.996-2.225,2.225-2.225C172.078,386.072,173.074,387.068,173.074,388.297z"/>
										<path style="fill:#F7F7F8;" d="M172.573,388.297c0,0.952-0.772,1.724-1.724,1.724c-0.952,0-1.724-0.772-1.724-1.724
											c0-0.952,0.772-1.724,1.724-1.724C171.801,386.573,172.573,387.344,172.573,388.297z"/>
									</g>
								</g>
							</g>
						</g>
						<g>
							<g>
								<path style="fill:#E05A60;" d="M139.812,265.729c0-1.433,1.162-2.595,2.595-2.595c1.433,0,2.595,1.162,2.595,2.595
									c0,1.433-1.162,2.595-2.595,2.595C140.973,268.324,139.812,267.163,139.812,265.729z"/>
								<rect x="147.724" y="263.459" style="fill:#7FB5B8;" width="25.621" height="4.541"/>
							</g>
							<g>
								<path style="fill:#243C5B;" d="M139.812,276.422c0-1.433,1.162-2.595,2.595-2.595c1.433,0,2.595,1.162,2.595,2.595
									c0,1.433-1.162,2.595-2.595,2.595C140.973,279.017,139.812,277.855,139.812,276.422z"/>
								<rect x="147.724" y="274.152" style="fill:#7FB5B8;" width="25.621" height="4.541"/>
							</g>
						</g>
						<g>
							<g>
								<path style="fill:#E05A60;" d="M139.812,294.111c0-1.433,1.162-2.595,2.595-2.595c1.433,0,2.595,1.162,2.595,2.595
									c0,1.433-1.162,2.595-2.595,2.595C140.973,296.706,139.812,295.544,139.812,294.111z"/>
								<rect x="147.724" y="291.841" style="fill:#7FB5B8;" width="25.621" height="4.541"/>
							</g>
							<g>
								<path style="fill:#243C5B;" d="M139.812,304.804c0-1.433,1.162-2.595,2.595-2.595c1.433,0,2.595,1.162,2.595,2.595
									c0,1.433-1.162,2.595-2.595,2.595C140.973,307.399,139.812,306.237,139.812,304.804z"/>
								<rect x="147.724" y="302.533" style="fill:#7FB5B8;" width="25.621" height="4.541"/>
							</g>
						</g>
						<g>
							<g>
								<path style="fill:#243C5B;" d="M139.812,322.493c0-1.433,1.162-2.595,2.595-2.595c1.433,0,2.595,1.162,2.595,2.595
									c0,1.433-1.162,2.595-2.595,2.595C140.973,325.088,139.812,323.926,139.812,322.493z"/>
								<rect x="147.724" y="320.222" style="fill:#7FB5B8;" width="25.621" height="4.541"/>
							</g>
							<g>
								<path style="fill:#E05A60;" d="M139.812,333.185c0-1.433,1.162-2.595,2.595-2.595c1.433,0,2.595,1.162,2.595,2.595
									c0,1.433-1.162,2.595-2.595,2.595C140.973,335.781,139.812,334.619,139.812,333.185z"/>
								<rect x="147.724" y="330.915" style="fill:#7FB5B8;" width="25.621" height="4.541"/>
							</g>
						</g>
						
							<line style="fill:none;stroke:#E05A60;stroke-width:0.4834;stroke-miterlimit:10;" x1="133.697" y1="285.472" x2="179.459" y2="285.472"/>
						
							<line style="fill:none;stroke:#E05A60;stroke-width:0.4834;stroke-miterlimit:10;" x1="133.697" y1="313.648" x2="179.459" y2="313.648"/>
						
							<line style="fill:none;stroke:#E05A60;stroke-width:0.4834;stroke-miterlimit:10;" x1="133.697" y1="340.475" x2="179.459" y2="340.475"/>
						<rect x="140.056" y="345.873" style="fill:#FFFFFF;" width="16.522" height="4.541"/>
						<rect x="140.056" y="353.89" style="fill:#FFFFFF;" width="16.522" height="4.541"/>
						<rect x="140.056" y="361.907" style="fill:#FFFFFF;" width="16.522" height="4.541"/>
						<rect x="140.056" y="369.924" style="fill:#FFFFFF;" width="16.522" height="4.541"/>
						<rect x="140.056" y="377.941" style="fill:#FFFFFF;" width="16.522" height="4.541"/>
						<rect x="140.056" y="385.958" style="fill:#FFFFFF;" width="16.522" height="4.541"/>
					</g>
				</g>
			</g>
			<g>
				<path style="opacity:0.48;fill:#243C5B;" d="M359.537,202.75h-91.103c-0.492,0-0.891-0.399-0.891-0.891v-4.729
					c0-0.492-0.399-0.891-0.891-0.891h-25.63c-0.492,0-0.891,0.399-0.891,0.891v5.619v199.093h120.296V203.64
					C360.428,203.148,360.029,202.75,359.537,202.75z"/>
				<g>
					<path style="fill:#FAFBFC;" d="M265.371,204.277v-4.729c0-0.492-0.399-0.891-0.891-0.891h-25.63
						c-0.492,0-0.891,0.399-0.891,0.891v5.619v196.675h120.296V206.059c0-0.492-0.399-0.891-0.891-0.891h-91.103
						C265.77,205.168,265.371,204.769,265.371,204.277z"/>
					
						<rect x="200.826" y="246.524" transform="matrix(-1.836970e-16 1 -1 -1.836970e-16 602.6687 6.453)" style="fill:#243C5B;" width="194.564" height="116.073"/>
					<g>
						<g>
							<g>
								<rect x="250.468" y="213.35" style="fill:#E05A60;" width="8.704" height="1.299"/>
								<rect x="250.468" y="266.64" style="fill:#E05A60;" width="8.704" height="1.299"/>
								<rect x="256.668" y="221" style="fill:#E05A60;" width="8.703" height="1.299"/>
								<rect x="266.215" y="221" style="fill:#80C1C4;" width="8.704" height="1.299"/>
								<rect x="275.763" y="221" style="fill:#80C1C4;" width="21.433" height="1.299"/>
								<rect x="250.468" y="216.4" style="fill:#2B496F;" width="8.704" height="1.299"/>
								<rect x="266.215" y="223.883" style="fill:#2B496F;" width="13.494" height="1.299"/>
								<rect x="280.447" y="223.883" style="fill:#2B496F;" width="32.014" height="1.299"/>
								<rect x="313.198" y="223.883" style="fill:#2B496F;" width="10.215" height="1.299"/>
								<rect x="324.151" y="223.883" style="fill:#2B496F;" width="12.044" height="1.299"/>
								<rect x="273.637" y="226.766" style="fill:#2B496F;" width="26.644" height="1.299"/>
								<rect x="301.158" y="226.766" style="fill:#2B496F;" width="35.037" height="1.299"/>
								<rect x="266.215" y="226.766" style="fill:#2B496F;" width="6.379" height="1.299"/>
								<rect x="337.044" y="226.766" style="fill:#E05A60;" width="8.704" height="1.299"/>
								<rect x="256.668" y="230.775" style="fill:#E05A60;" width="8.703" height="1.299"/>
								<rect x="256.668" y="241.4" style="fill:#E05A60;" width="8.703" height="1.299"/>
								<rect x="266.215" y="233.658" style="fill:#E05A60;" width="8.704" height="1.299"/>
								<rect x="275.763" y="233.658" style="fill:#80C1C4;" width="21.433" height="1.299"/>
								<rect x="275.763" y="247.625" style="fill:#80C1C4;" width="5.61" height="1.299"/>
								<rect x="266.215" y="236.54" style="fill:#2B496F;" width="13.494" height="1.299"/>
								<rect x="280.447" y="236.54" style="fill:#2B496F;" width="32.014" height="1.299"/>
								<rect x="313.198" y="236.54" style="fill:#2B496F;" width="10.215" height="1.299"/>
								<rect x="324.151" y="236.54" style="fill:#2B496F;" width="12.044" height="1.299"/>
								<rect x="273.637" y="239.423" style="fill:#2B496F;" width="26.644" height="1.299"/>
								<rect x="266.215" y="239.423" style="fill:#2B496F;" width="6.379" height="1.299"/>
								<rect x="301.158" y="239.423" style="fill:#E05A60;" width="8.704" height="1.299"/>
								<rect x="256.668" y="244.743" style="fill:#E05A60;" width="8.703" height="1.299"/>
								<rect x="256.668" y="262.972" style="fill:#E05A60;" width="8.703" height="1.299"/>
								<rect x="266.215" y="247.625" style="fill:#E05A60;" width="8.704" height="1.299"/>
								<rect x="266.215" y="260.521" style="fill:#E05A60;" width="8.704" height="1.299"/>
								<rect x="275.358" y="250.055" style="fill:#E05A60;" width="3.544" height="1.299"/>
								<rect x="279.601" y="250.055" style="fill:#2B496F;" width="5.321" height="1.299"/>
								<rect x="285.396" y="250.055" style="fill:#2B496F;" width="5.897" height="1.299"/>
								<rect x="291.82" y="250.055" style="fill:#2B496F;" width="4.423" height="1.299"/>
								<rect x="279.601" y="258.01" style="fill:#2B496F;" width="5.321" height="1.299"/>
								<rect x="285.396" y="258.01" style="fill:#2B496F;" width="5.897" height="1.299"/>
								<rect x="291.82" y="258.01" style="fill:#2B496F;" width="4.423" height="1.299"/>
								<rect x="279.601" y="252.707" style="fill:#2B496F;" width="5.321" height="1.299"/>
								<rect x="288.714" y="252.707" style="fill:#2B496F;" width="7.53" height="1.299"/>
								<rect x="285.396" y="252.707" style="fill:#2B496F;" width="2.896" height="1.299"/>
								<rect x="279.601" y="255.358" style="fill:#2B496F;" width="2.109" height="1.299"/>
								<rect x="282.237" y="255.358" style="fill:#2B496F;" width="2.685" height="1.299"/>
								<rect x="285.396" y="255.358" style="fill:#2B496F;" width="10.847" height="1.299"/>
								<rect x="275.358" y="252.707" style="fill:#E05A60;" width="3.544" height="1.299"/>
								<rect x="275.358" y="255.358" style="fill:#E05A60;" width="3.544" height="1.299"/>
								<rect x="275.358" y="258.01" style="fill:#E05A60;" width="3.544" height="1.299"/>
								<rect x="296.947" y="250.055" style="fill:#E05A60;" width="3.544" height="1.299"/>
								<rect x="296.947" y="252.707" style="fill:#E05A60;" width="3.544" height="1.299"/>
								<rect x="296.947" y="255.358" style="fill:#E05A60;" width="3.544" height="1.299"/>
								<rect x="296.947" y="258.01" style="fill:#E05A60;" width="3.544" height="1.299"/>
							</g>
							<g>
								<rect x="250.468" y="270.758" style="fill:#E05A60;" width="8.704" height="1.299"/>
								<rect x="256.668" y="278.408" style="fill:#E05A60;" width="8.703" height="1.299"/>
								<rect x="266.215" y="278.408" style="fill:#80C1C4;" width="8.704" height="1.299"/>
								<rect x="275.763" y="278.408" style="fill:#80C1C4;" width="21.433" height="1.299"/>
								<rect x="250.468" y="273.807" style="fill:#2B496F;" width="8.704" height="1.299"/>
								<rect x="266.215" y="281.291" style="fill:#2B496F;" width="13.494" height="1.299"/>
								<rect x="280.447" y="281.291" style="fill:#2B496F;" width="32.014" height="1.299"/>
								<rect x="313.198" y="281.291" style="fill:#2B496F;" width="10.215" height="1.299"/>
								<rect x="324.151" y="281.291" style="fill:#2B496F;" width="12.044" height="1.299"/>
								<rect x="273.637" y="284.173" style="fill:#2B496F;" width="26.644" height="1.299"/>
								<rect x="301.158" y="284.173" style="fill:#2B496F;" width="35.037" height="1.299"/>
								<rect x="266.215" y="284.173" style="fill:#2B496F;" width="6.379" height="1.299"/>
								<rect x="337.044" y="284.173" style="fill:#E05A60;" width="8.704" height="1.299"/>
								<rect x="256.668" y="288.183" style="fill:#E05A60;" width="8.703" height="1.299"/>
								<rect x="256.668" y="298.808" style="fill:#E05A60;" width="8.703" height="1.299"/>
								<rect x="266.215" y="291.065" style="fill:#E05A60;" width="8.704" height="1.299"/>
								<rect x="275.763" y="291.065" style="fill:#80C1C4;" width="21.433" height="1.299"/>
								<rect x="266.215" y="293.948" style="fill:#2B496F;" width="13.494" height="1.299"/>
								<rect x="280.447" y="293.948" style="fill:#2B496F;" width="32.014" height="1.299"/>
								<rect x="313.198" y="293.948" style="fill:#2B496F;" width="10.215" height="1.299"/>
								<rect x="324.151" y="293.948" style="fill:#2B496F;" width="12.044" height="1.299"/>
								<rect x="273.637" y="296.83" style="fill:#2B496F;" width="26.644" height="1.299"/>
								<rect x="266.215" y="296.83" style="fill:#2B496F;" width="6.379" height="1.299"/>
								<rect x="301.158" y="296.83" style="fill:#E05A60;" width="8.704" height="1.299"/>
								<rect x="256.668" y="302.151" style="fill:#E05A60;" width="8.703" height="1.299"/>
							</g>
						</g>
						<g>
							<g>
								<rect x="250.468" y="305.858" style="fill:#E05A60;" width="8.704" height="1.299"/>
								<rect x="250.468" y="359.148" style="fill:#E05A60;" width="8.704" height="1.299"/>
								<rect x="256.668" y="313.508" style="fill:#E05A60;" width="8.703" height="1.299"/>
								<rect x="266.215" y="313.508" style="fill:#80C1C4;" width="8.704" height="1.299"/>
								<rect x="275.763" y="313.508" style="fill:#80C1C4;" width="21.433" height="1.299"/>
								<rect x="250.468" y="308.907" style="fill:#2B496F;" width="8.704" height="1.299"/>
								<rect x="266.215" y="316.391" style="fill:#2B496F;" width="13.494" height="1.299"/>
								<rect x="280.447" y="316.391" style="fill:#2B496F;" width="32.014" height="1.299"/>
								<rect x="313.198" y="316.391" style="fill:#2B496F;" width="10.215" height="1.299"/>
								<rect x="324.151" y="316.391" style="fill:#2B496F;" width="12.044" height="1.299"/>
								<rect x="273.637" y="319.273" style="fill:#2B496F;" width="26.644" height="1.299"/>
								<rect x="301.158" y="319.273" style="fill:#2B496F;" width="35.037" height="1.299"/>
								<rect x="266.215" y="319.273" style="fill:#2B496F;" width="6.379" height="1.299"/>
								<rect x="337.044" y="319.273" style="fill:#E05A60;" width="8.704" height="1.299"/>
								<rect x="256.668" y="323.283" style="fill:#E05A60;" width="8.703" height="1.299"/>
								<rect x="256.668" y="333.908" style="fill:#E05A60;" width="8.703" height="1.299"/>
								<rect x="266.215" y="326.165" style="fill:#E05A60;" width="8.704" height="1.299"/>
								<rect x="275.763" y="326.165" style="fill:#80C1C4;" width="21.433" height="1.299"/>
								<rect x="275.763" y="340.133" style="fill:#80C1C4;" width="5.61" height="1.299"/>
								<rect x="266.215" y="329.048" style="fill:#2B496F;" width="13.494" height="1.299"/>
								<rect x="280.447" y="329.048" style="fill:#2B496F;" width="32.014" height="1.299"/>
								<rect x="313.198" y="329.048" style="fill:#2B496F;" width="10.215" height="1.299"/>
								<rect x="324.151" y="329.048" style="fill:#2B496F;" width="12.044" height="1.299"/>
								<rect x="273.637" y="331.93" style="fill:#2B496F;" width="26.644" height="1.299"/>
								<rect x="266.215" y="331.93" style="fill:#2B496F;" width="6.379" height="1.299"/>
								<rect x="301.158" y="331.93" style="fill:#E05A60;" width="8.704" height="1.299"/>
								<rect x="256.668" y="337.251" style="fill:#E05A60;" width="8.703" height="1.299"/>
								<rect x="256.668" y="355.48" style="fill:#E05A60;" width="8.703" height="1.299"/>
								<rect x="266.215" y="340.133" style="fill:#E05A60;" width="8.704" height="1.299"/>
								<rect x="266.215" y="353.029" style="fill:#E05A60;" width="8.704" height="1.299"/>
								<rect x="275.358" y="342.563" style="fill:#E05A60;" width="3.544" height="1.299"/>
								<rect x="279.601" y="342.563" style="fill:#2B496F;" width="5.321" height="1.299"/>
								<rect x="285.396" y="342.563" style="fill:#2B496F;" width="5.897" height="1.299"/>
								<rect x="291.82" y="342.563" style="fill:#2B496F;" width="4.423" height="1.299"/>
								<rect x="279.601" y="350.517" style="fill:#2B496F;" width="5.321" height="1.299"/>
								<rect x="285.396" y="350.517" style="fill:#2B496F;" width="5.897" height="1.299"/>
								<rect x="291.82" y="350.517" style="fill:#2B496F;" width="4.423" height="1.299"/>
								<rect x="279.601" y="345.215" style="fill:#2B496F;" width="5.321" height="1.299"/>
								<rect x="288.714" y="345.215" style="fill:#2B496F;" width="7.53" height="1.299"/>
								<rect x="285.396" y="345.215" style="fill:#2B496F;" width="2.896" height="1.299"/>
								<rect x="279.601" y="347.866" style="fill:#2B496F;" width="2.109" height="1.299"/>
								<rect x="282.237" y="347.866" style="fill:#2B496F;" width="2.685" height="1.299"/>
								<rect x="285.396" y="347.866" style="fill:#2B496F;" width="10.847" height="1.299"/>
								<rect x="275.358" y="345.215" style="fill:#E05A60;" width="3.544" height="1.299"/>
								<rect x="275.358" y="347.866" style="fill:#E05A60;" width="3.544" height="1.299"/>
								<rect x="275.358" y="350.517" style="fill:#E05A60;" width="3.544" height="1.299"/>
								<rect x="296.947" y="342.563" style="fill:#E05A60;" width="3.544" height="1.299"/>
								<rect x="296.947" y="345.215" style="fill:#E05A60;" width="3.544" height="1.299"/>
								<rect x="296.947" y="347.866" style="fill:#E05A60;" width="3.544" height="1.299"/>
								<rect x="296.947" y="350.517" style="fill:#E05A60;" width="3.544" height="1.299"/>
							</g>
							<g>
								<rect x="250.468" y="363.265" style="fill:#E05A60;" width="8.704" height="1.299"/>
								<rect x="256.668" y="370.916" style="fill:#E05A60;" width="8.703" height="1.299"/>
								<rect x="266.215" y="370.916" style="fill:#80C1C4;" width="8.704" height="1.299"/>
								<rect x="275.763" y="370.916" style="fill:#80C1C4;" width="21.433" height="1.299"/>
								<rect x="250.468" y="366.315" style="fill:#2B496F;" width="8.704" height="1.299"/>
								<rect x="266.215" y="373.798" style="fill:#2B496F;" width="13.494" height="1.299"/>
								<rect x="280.447" y="373.798" style="fill:#2B496F;" width="32.014" height="1.299"/>
								<rect x="313.198" y="373.798" style="fill:#2B496F;" width="10.215" height="1.299"/>
								<rect x="324.151" y="373.798" style="fill:#2B496F;" width="12.044" height="1.299"/>
								<rect x="273.637" y="376.681" style="fill:#2B496F;" width="26.644" height="1.299"/>
								<rect x="301.158" y="376.681" style="fill:#2B496F;" width="35.037" height="1.299"/>
								<rect x="266.215" y="376.681" style="fill:#2B496F;" width="6.379" height="1.299"/>
								<rect x="337.044" y="376.681" style="fill:#E05A60;" width="8.704" height="1.299"/>
								<rect x="256.668" y="380.69" style="fill:#E05A60;" width="8.703" height="1.299"/>
								<rect x="256.668" y="391.316" style="fill:#E05A60;" width="8.703" height="1.299"/>
								<rect x="266.215" y="383.573" style="fill:#E05A60;" width="8.704" height="1.299"/>
								<rect x="275.763" y="383.573" style="fill:#80C1C4;" width="21.433" height="1.299"/>
								<rect x="266.215" y="386.456" style="fill:#2B496F;" width="13.494" height="1.299"/>
								<rect x="280.447" y="386.456" style="fill:#2B496F;" width="32.014" height="1.299"/>
								<rect x="313.198" y="386.456" style="fill:#2B496F;" width="10.215" height="1.299"/>
								<rect x="324.151" y="386.456" style="fill:#2B496F;" width="12.044" height="1.299"/>
								<rect x="273.637" y="389.338" style="fill:#2B496F;" width="26.644" height="1.299"/>
								<rect x="266.215" y="389.338" style="fill:#2B496F;" width="6.379" height="1.299"/>
								<rect x="301.158" y="389.338" style="fill:#E05A60;" width="8.704" height="1.299"/>
								<rect x="256.668" y="394.658" style="fill:#E05A60;" width="8.703" height="1.299"/>
							</g>
						</g>
					</g>
					<g>
						<path style="fill:#E05A60;" d="M241.321,202.934c0-0.525,0.425-0.95,0.95-0.95s0.95,0.425,0.95,0.95s-0.425,0.95-0.95,0.95
							S241.321,203.458,241.321,202.934z"/>
						<path style="fill:#F8E12E;" d="M244.945,202.934c0-0.525,0.425-0.95,0.95-0.95c0.525,0,0.95,0.425,0.95,0.95
							s-0.425,0.95-0.95,0.95C245.37,203.884,244.945,203.458,244.945,202.934z"/>
						<path style="fill:#4B7E83;" d="M248.568,202.934c0-0.525,0.425-0.95,0.95-0.95s0.95,0.425,0.95,0.95s-0.425,0.95-0.95,0.95
							S248.568,203.458,248.568,202.934z"/>
					</g>
				</g>
			</g>
		</g>
	</g>
	<g>
		<g>
			<g>
				<path style="fill:#E05A60;" d="M155.885,451.117l-2.772-17.01h1.975l1.826,12.222l2.289-12.159h1.681l2.31,12.222l1.785-12.284
					h1.932l-2.729,17.01h-1.723l-2.373-12.601l-2.394,12.601H155.885z"/>
				<path style="fill:#E05A60;" d="M170.563,451.117v-17.01h6.594v1.764h-4.221v5.628h3.423v1.68h-3.423v6.237h4.263v1.701H170.563z
					"/>
				<path style="fill:#E05A60;" d="M180.686,451.117v-17.01h3.905c0.771,0,1.439,0.084,2.006,0.252
					c0.567,0.168,1.04,0.427,1.418,0.776c0.378,0.351,0.657,0.795,0.84,1.334c0.182,0.539,0.272,1.173,0.272,1.9
					c0,0.7-0.087,1.306-0.262,1.816c-0.176,0.511-0.441,0.913-0.799,1.207c-0.356,0.294-0.815,0.483-1.375,0.567
					c0.686,0.154,1.239,0.417,1.659,0.787c0.42,0.371,0.731,0.848,0.935,1.429c0.202,0.581,0.304,1.277,0.304,2.089
					c0,0.729-0.084,1.394-0.252,1.995c-0.168,0.603-0.43,1.113-0.787,1.533s-0.813,0.745-1.365,0.977
					c-0.553,0.23-1.207,0.347-1.963,0.347H180.686z M183.059,441.205h1.406c0.673,0,1.197-0.095,1.575-0.283
					c0.378-0.189,0.645-0.494,0.798-0.914c0.154-0.42,0.231-0.966,0.231-1.638c0-0.784-0.119-1.351-0.357-1.701
					c-0.238-0.35-0.608-0.57-1.112-0.661s-1.162-0.137-1.975-0.137h-0.566V441.205z M183.059,449.416h1.596
					c1.063,0,1.774-0.248,2.132-0.745c0.356-0.497,0.535-1.299,0.535-2.405c0-0.714-0.095-1.313-0.283-1.795
					c-0.189-0.483-0.49-0.847-0.903-1.092s-0.97-0.368-1.67-0.368h-1.406V449.416z"/>
				<path style="fill:#E05A60;" d="M199.647,451.117v-17.01h3.695c1.261,0,2.258,0.192,2.993,0.577
					c0.734,0.385,1.26,0.963,1.575,1.732c0.314,0.771,0.472,1.729,0.472,2.877v6.258c0,1.204-0.157,2.22-0.472,3.045
					c-0.315,0.826-0.826,1.453-1.533,1.88s-1.656,0.641-2.846,0.641H199.647z M202.021,449.416h1.344
					c0.868,0,1.483-0.168,1.848-0.504s0.585-0.826,0.662-1.47c0.076-0.645,0.115-1.421,0.115-2.331v-5.523
					c0-0.882-0.056-1.596-0.168-2.142s-0.357-0.945-0.735-1.197s-0.973-0.378-1.785-0.378h-1.28V449.416z"/>
				<path style="fill:#E05A60;" d="M212.29,451.117v-17.01h6.594v1.764h-4.221v5.628h3.423v1.68h-3.423v6.237h4.263v1.701H212.29z"
					/>
				<path style="fill:#E05A60;" d="M226.423,451.306c-0.98,0-1.796-0.21-2.446-0.63c-0.651-0.42-1.145-1.001-1.48-1.743
					c-0.336-0.741-0.532-1.603-0.588-2.583l2.1-0.566c0.042,0.602,0.137,1.183,0.283,1.743c0.147,0.56,0.389,1.019,0.725,1.375
					c0.336,0.357,0.805,0.535,1.407,0.535c0.616,0,1.081-0.171,1.396-0.514c0.315-0.344,0.473-0.837,0.473-1.48
					c0-0.771-0.176-1.39-0.525-1.859c-0.35-0.469-0.791-0.941-1.322-1.417l-2.856-2.521c-0.561-0.489-0.974-1.025-1.239-1.606
					c-0.266-0.58-0.398-1.298-0.398-2.152c0-1.246,0.356-2.212,1.07-2.897c0.715-0.687,1.688-1.029,2.919-1.029
					c0.673,0,1.264,0.088,1.775,0.263c0.511,0.175,0.938,0.444,1.28,0.809s0.616,0.822,0.819,1.375
					c0.203,0.554,0.339,1.201,0.409,1.942l-2.016,0.546c-0.042-0.56-0.126-1.074-0.252-1.543s-0.347-0.847-0.662-1.134
					c-0.314-0.287-0.766-0.431-1.354-0.431c-0.588,0-1.046,0.157-1.375,0.473c-0.329,0.314-0.493,0.78-0.493,1.396
					c0,0.518,0.087,0.944,0.262,1.28s0.459,0.68,0.851,1.029l2.877,2.521c0.645,0.56,1.211,1.229,1.701,2.005
					c0.49,0.777,0.735,1.698,0.735,2.762c0,0.84-0.176,1.564-0.525,2.174c-0.35,0.608-0.829,1.074-1.438,1.396
					C227.925,451.145,227.221,451.306,226.423,451.306z"/>
				<path style="fill:#E05A60;" d="M234.046,451.117v-17.01h2.331v17.01H234.046z"/>
				<path style="fill:#E05A60;" d="M244.755,451.327c-1.064,0-1.915-0.228-2.552-0.683s-1.099-1.116-1.386-1.984
					s-0.431-1.911-0.431-3.129v-5.691c0-1.246,0.13-2.307,0.389-3.182s0.721-1.543,1.386-2.005s1.593-0.693,2.783-0.693
					c1.063,0,1.921,0.179,2.572,0.535c0.65,0.357,1.123,0.903,1.417,1.639c0.294,0.734,0.441,1.662,0.441,2.782v0.63h-2.227v-0.525
					c0-0.741-0.049-1.347-0.146-1.816c-0.099-0.469-0.298-0.818-0.599-1.05c-0.301-0.23-0.773-0.347-1.417-0.347
					c-0.7,0-1.208,0.161-1.522,0.483c-0.315,0.322-0.512,0.76-0.589,1.313s-0.115,1.18-0.115,1.88v6.3
					c0,0.812,0.06,1.491,0.179,2.037s0.347,0.952,0.683,1.218s0.812,0.398,1.428,0.398s1.092-0.146,1.428-0.44
					s0.567-0.728,0.693-1.302s0.189-1.288,0.189-2.143v-1.176h-2.163v-1.68h4.305v8.421h-1.491l-0.23-1.953
					c-0.225,0.63-0.574,1.148-1.051,1.554C246.253,451.124,245.595,451.327,244.755,451.327z"/>
				<path style="fill:#E05A60;" d="M253.512,451.117v-17.01h1.617l4.829,11.298v-11.298h1.975v17.01h-1.512l-4.894-11.613v11.613
					H253.512z"/>
				<path style="fill:#E05A60;" d="M276.821,451.306c-1.204,0-2.139-0.252-2.804-0.756s-1.127-1.183-1.386-2.037
					c-0.259-0.854-0.389-1.806-0.389-2.855v-6.006c0-1.148,0.13-2.149,0.389-3.004c0.259-0.854,0.721-1.515,1.386-1.984
					c0.665-0.469,1.6-0.703,2.804-0.703c1.063,0,1.907,0.196,2.53,0.588c0.623,0.393,1.071,0.952,1.345,1.68
					c0.272,0.729,0.409,1.604,0.409,2.625v1.345h-2.247V439c0-0.63-0.031-1.187-0.095-1.67c-0.063-0.482-0.234-0.857-0.515-1.123
					s-0.749-0.399-1.406-0.399c-0.673,0-1.163,0.145-1.471,0.431c-0.308,0.287-0.508,0.693-0.599,1.218
					c-0.091,0.525-0.136,1.138-0.136,1.838v6.741c0,0.854,0.069,1.529,0.21,2.026c0.14,0.497,0.37,0.851,0.692,1.061
					s0.756,0.314,1.303,0.314c0.644,0,1.105-0.143,1.386-0.43c0.279-0.287,0.455-0.683,0.524-1.187
					c0.07-0.504,0.105-1.093,0.105-1.765v-1.26h2.247v1.26c0,1.036-0.126,1.95-0.378,2.741s-0.687,1.406-1.302,1.848
					C278.81,451.085,277.941,451.306,276.821,451.306z"/>
				<path style="fill:#E05A60;" d="M289.295,451.306c-1.148,0-2.065-0.224-2.751-0.672c-0.687-0.447-1.176-1.088-1.47-1.921
					s-0.441-1.81-0.441-2.93v-6.447c0-1.12,0.15-2.082,0.452-2.888c0.301-0.805,0.79-1.421,1.47-1.848
					c0.679-0.427,1.592-0.641,2.74-0.641c1.147,0,2.058,0.217,2.73,0.651c0.672,0.434,1.158,1.05,1.459,1.848
					s0.451,1.757,0.451,2.877v6.468c0,1.106-0.15,2.072-0.451,2.898s-0.787,1.467-1.459,1.921
					C291.353,451.078,290.442,451.306,289.295,451.306z M289.295,449.437c0.63,0,1.105-0.129,1.428-0.388s0.539-0.623,0.651-1.093
					c0.112-0.469,0.168-1.019,0.168-1.648v-7.455c0-0.63-0.056-1.172-0.168-1.627s-0.329-0.805-0.651-1.05s-0.798-0.368-1.428-0.368
					s-1.109,0.123-1.438,0.368s-0.55,0.595-0.661,1.05c-0.112,0.455-0.168,0.997-0.168,1.627v7.455c0,0.63,0.056,1.18,0.168,1.648
					c0.111,0.47,0.332,0.834,0.661,1.093S288.665,449.437,289.295,449.437z"/>
				<path style="fill:#E05A60;" d="M297.843,451.117v-17.01h1.617l4.829,11.298v-11.298h1.975v17.01h-1.512l-4.894-11.613v11.613
					H297.843z"/>
				<path style="fill:#E05A60;" d="M314.769,451.306c-1.204,0-2.139-0.252-2.804-0.756s-1.127-1.183-1.386-2.037
					c-0.259-0.854-0.389-1.806-0.389-2.855v-6.006c0-1.148,0.13-2.149,0.389-3.004c0.259-0.854,0.721-1.515,1.386-1.984
					c0.665-0.469,1.6-0.703,2.804-0.703c1.063,0,1.907,0.196,2.53,0.588c0.623,0.393,1.071,0.952,1.345,1.68
					c0.272,0.729,0.409,1.604,0.409,2.625v1.345h-2.247V439c0-0.63-0.031-1.187-0.095-1.67c-0.063-0.482-0.234-0.857-0.515-1.123
					s-0.749-0.399-1.406-0.399c-0.673,0-1.163,0.145-1.471,0.431c-0.308,0.287-0.508,0.693-0.599,1.218
					c-0.091,0.525-0.136,1.138-0.136,1.838v6.741c0,0.854,0.069,1.529,0.21,2.026c0.14,0.497,0.37,0.851,0.692,1.061
					s0.756,0.314,1.303,0.314c0.644,0,1.105-0.143,1.386-0.43c0.279-0.287,0.455-0.683,0.524-1.187
					c0.07-0.504,0.105-1.093,0.105-1.765v-1.26h2.247v1.26c0,1.036-0.126,1.95-0.378,2.741s-0.687,1.406-1.302,1.848
					C316.757,451.085,315.889,451.306,314.769,451.306z"/>
				<path style="fill:#E05A60;" d="M322.896,451.117v-17.01h6.594v1.764h-4.221v5.628h3.423v1.68h-3.423v6.237h4.263v1.701H322.896z
					"/>
				<path style="fill:#E05A60;" d="M333.018,451.117v-17.01h4.221c1.021,0,1.838,0.186,2.446,0.556
					c0.609,0.371,1.054,0.907,1.334,1.606c0.279,0.7,0.42,1.548,0.42,2.541c0,0.896-0.157,1.674-0.473,2.331
					c-0.315,0.658-0.78,1.166-1.396,1.522c-0.616,0.357-1.386,0.536-2.31,0.536h-1.869v7.917H333.018z M335.391,441.499h1.092
					c0.686,0,1.225-0.077,1.617-0.231c0.392-0.153,0.672-0.423,0.84-0.809c0.168-0.385,0.252-0.927,0.252-1.627
					c0-0.812-0.06-1.435-0.179-1.869c-0.119-0.434-0.367-0.735-0.745-0.903s-0.966-0.252-1.765-0.252h-1.112V441.499z"/>
				<path style="fill:#E05A60;" d="M346.541,451.117v-15.246h-2.877v-1.764h8.043v1.764h-2.793v15.246H346.541z"/>
			</g>
		</g>
		<g>
			
				<line style="fill:none;stroke:#E05A60;stroke-linecap:round;stroke-linejoin:round;stroke-miterlimit:10;" x1="65.211" y1="445.667" x2="143.876" y2="445.667"/>
			
				<line style="fill:none;stroke:#E05A60;stroke-linecap:round;stroke-linejoin:round;stroke-miterlimit:10;" x1="356.124" y1="445.667" x2="434.789" y2="445.667"/>
		</g>
	</g>
</g>
</svg>
