<?xml version="1.0" encoding="utf-8"?>
<!-- Generator: Adobe Illustrator 27.5.0, SVG Export Plug-In . SVG Version: 6.00 Build 0)  -->
<svg version="1.1" xmlns="http://www.w3.org/2000/svg" xmlns:xlink="http://www.w3.org/1999/xlink" x="0px" y="0px"
	 viewBox="0 0 500 500" style="enable-background:new 0 0 500 500;" xml:space="preserve">

<g id="OBJECTS">
	<g>
		<g>
			<path style="fill:#DCF0F0;" d="M422.815,453.876H86.489c-6.213,0-11.25-5.037-11.25-11.25l0,0c0-6.213,5.037-11.25,11.25-11.25
				h336.325c6.213,0,11.25,5.037,11.25,11.25l0,0C434.065,448.839,429.028,453.876,422.815,453.876z"/>
			<circle style="fill:#DCF0F0;" cx="59.741" cy="442.626" r="11.25"/>
			<circle style="fill:#DCF0F0;" cx="449.564" cy="442.626" r="11.25"/>
		</g>
		<path style="fill:#A8DADC;" d="M105.693,171.357l-7.169-2.311c-0.419-1.253-0.922-2.467-1.506-3.635l3.435-6.703
			c0.618-1.205,0.387-2.671-0.57-3.629l-5.12-5.12c-0.958-0.958-2.424-1.188-3.629-0.57l-6.703,3.435
			c-1.168-0.584-2.382-1.087-3.635-1.506l-2.311-7.169c-0.415-1.289-1.615-2.163-2.969-2.163h-7.241
			c-1.354,0-2.554,0.874-2.969,2.163l-2.311,7.169c-1.253,0.419-2.467,0.922-3.635,1.506l-6.703-3.435
			c-1.205-0.618-2.671-0.387-3.629,0.57l-5.12,5.12c-0.958,0.957-1.188,2.424-0.57,3.629l3.435,6.703
			c-0.584,1.168-1.087,2.382-1.506,3.635l-7.169,2.311c-1.289,0.415-2.162,1.615-2.162,2.969v7.241c0,1.354,0.874,2.554,2.162,2.969
			l7.169,2.311c0.419,1.253,0.922,2.467,1.506,3.635l-3.435,6.703c-0.618,1.205-0.387,2.671,0.57,3.629l5.12,5.12
			c0.958,0.958,2.424,1.188,3.629,0.57l6.703-3.435c1.168,0.584,2.382,1.087,3.635,1.506l2.311,7.169
			c0.416,1.289,1.615,2.163,2.969,2.163h7.241c1.354,0,2.554-0.874,2.969-2.163l2.311-7.169c1.253-0.419,2.467-0.922,3.635-1.506
			l6.703,3.435c1.205,0.618,2.671,0.387,3.629-0.57l5.12-5.12c0.958-0.958,1.188-2.424,0.57-3.629l-3.435-6.703
			c0.584-1.168,1.087-2.382,1.506-3.635l7.169-2.311c1.289-0.415,2.163-1.615,2.163-2.969v-7.241
			C107.856,172.972,106.982,171.773,105.693,171.357z M71.896,193.489c-8.583,0-15.542-6.958-15.542-15.542
			c0-8.584,6.958-15.542,15.542-15.542c8.584,0,15.542,6.958,15.542,15.542C87.437,186.531,80.479,193.489,71.896,193.489z"/>
		<g>
			<g>
				<path style="fill:#DCDCD2;" d="M332.014,443.524H168.581c-5.743,0-10.399-4.656-10.399-10.399V106.636
					c0-5.743,4.656-10.399,10.399-10.399h163.433c5.743,0,10.399,4.656,10.399,10.399v326.489
					C342.413,438.868,337.757,443.524,332.014,443.524z"/>
				<rect x="164.601" y="123.993" style="fill:#1D3557;" width="171.393" height="276.175"/>
				<path style="fill:#DCDCD2;" d="M157.522,141.171L157.522,141.171v-12.197l0,0c-1.418,0-2.568,1.15-2.568,2.568v7.061
					C154.954,140.022,156.104,141.171,157.522,141.171z"/>
				<path style="fill:#DCDCD2;" d="M343.113,152.469L343.113,152.469v-22.596l0,0c1.418,0,2.568,1.15,2.568,2.568v17.46
					C345.681,151.32,344.531,152.469,343.113,152.469z"/>
				<path style="fill:#DCDCD2;" d="M343.113,177.947L343.113,177.947v-22.596l0,0c1.418,0,2.568,1.15,2.568,2.568v17.46
					C345.681,176.798,344.531,177.947,343.113,177.947z"/>
				<g>
					<path style="fill:#1D3557;" d="M276.035,109.165h-45.833c-0.858,0-1.56,0.702-1.56,1.56l0,0c0,0.858,0.702,1.56,1.56,1.56
						h45.833c0.858,0,1.56-0.702,1.56-1.56l0,0C277.595,109.867,276.893,109.165,276.035,109.165z"/>
					<path style="fill:#1D3557;" d="M226.12,110.725c0,0.862-0.698,1.56-1.56,1.56c-0.861,0-1.56-0.698-1.56-1.56
						c0-0.861,0.698-1.56,1.56-1.56C225.421,109.165,226.12,109.864,226.12,110.725z"/>
				</g>
				<g>
					
						<ellipse transform="matrix(0.9736 -0.2283 0.2283 0.9736 -89.8318 68.3101)" style="fill:#1D3557;" cx="250.298" cy="422.378" rx="14.498" ry="14.498"/>
					<circle style="fill:#DCF0F0;" cx="250.298" cy="422.378" r="11.685"/>
				</g>
			</g>
			<path style="fill:#DCDCD2;" d="M236.405,211.512h-54.214c-5.344,0-9.676-4.332-9.676-9.676v-54.214
				c0-5.344,4.332-9.676,9.676-9.676h54.214c5.344,0,9.676,4.332,9.676,9.676v54.214
				C246.081,207.179,241.749,211.512,236.405,211.512z"/>
			<path style="fill:#E63946;" d="M318.308,211.512h-54.214c-5.344,0-9.676-4.332-9.676-9.676v-54.214
				c0-5.344,4.332-9.676,9.676-9.676h54.214c5.344,0,9.676,4.332,9.676,9.676v54.214
				C327.984,207.179,323.652,211.512,318.308,211.512z"/>
			<g>
				<rect x="172.515" y="227.302" style="fill:#E63946;" width="6.764" height="6.764"/>
				
					<line style="fill:none;stroke:#E63946;stroke-width:6.7638;stroke-miterlimit:10;" x1="183.675" y1="230.684" x2="286.048" y2="230.684"/>
				<rect x="172.515" y="316.999" style="fill:#E63946;" width="6.764" height="6.764"/>
				
					<line style="fill:none;stroke:#E63946;stroke-width:6.7638;stroke-miterlimit:10;" x1="183.675" y1="320.381" x2="281.089" y2="320.381"/>
				<rect x="172.515" y="274.648" style="fill:#E63946;" width="6.764" height="6.764"/>
				
					<line style="fill:none;stroke:#E63946;stroke-width:6.7638;stroke-miterlimit:10;" x1="183.675" y1="278.03" x2="327.984" y2="278.03"/>
				<rect x="172.515" y="250.975" style="fill:#DCDCD2;" width="6.764" height="6.764"/>
				
					<line style="fill:none;stroke:#DCDCD2;stroke-width:6.7638;stroke-miterlimit:10;" x1="183.675" y1="254.357" x2="304.085" y2="254.357"/>
				
					<line style="fill:none;stroke:#A8DADC;stroke-width:6.7638;stroke-miterlimit:10;" x1="172.515" y1="242.52" x2="318.853" y2="242.52"/>
				<rect x="252.497" y="262.812" style="fill:#A8DADC;" width="6.764" height="6.764"/>
				
					<line style="fill:none;stroke:#A8DADC;stroke-width:6.7638;stroke-miterlimit:10;" x1="172.515" y1="266.194" x2="247.931" y2="266.194"/>
				<g>
					<polyline style="fill:none;stroke:#DCDCD2;stroke-width:4.1418;stroke-miterlimit:10;" points="185.564,309.087 
						175.897,299.419 185.564,289.752 					"/>
					<polyline style="fill:none;stroke:#DCDCD2;stroke-width:4.1418;stroke-miterlimit:10;" points="216.782,309.087 
						226.449,299.419 216.782,289.752 					"/>
					<g>
						
							<line style="fill:none;stroke:#E63946;stroke-width:2.0709;stroke-miterlimit:10;" x1="194.88" y1="305.1" x2="194.88" y2="293.738"/>
						
							<line style="fill:none;stroke:#E63946;stroke-width:2.0709;stroke-miterlimit:10;" x1="189.199" y1="299.419" x2="200.561" y2="299.419"/>
						
							<line style="fill:none;stroke:#E63946;stroke-width:2.0709;stroke-miterlimit:10;" x1="190.863" y1="303.436" x2="198.897" y2="295.402"/>
						
							<line style="fill:none;stroke:#E63946;stroke-width:2.0709;stroke-miterlimit:10;" x1="190.863" y1="295.402" x2="198.897" y2="303.436"/>
					</g>
					<g>
						
							<line style="fill:none;stroke:#E63946;stroke-width:2.0709;stroke-miterlimit:10;" x1="208.721" y1="305.1" x2="208.721" y2="293.738"/>
						
							<line style="fill:none;stroke:#E63946;stroke-width:2.0709;stroke-miterlimit:10;" x1="203.04" y1="299.419" x2="214.401" y2="299.419"/>
						
							<line style="fill:none;stroke:#E63946;stroke-width:2.0709;stroke-miterlimit:10;" x1="204.704" y1="303.436" x2="212.738" y2="295.402"/>
						
							<line style="fill:none;stroke:#E63946;stroke-width:2.0709;stroke-miterlimit:10;" x1="204.704" y1="295.402" x2="212.738" y2="303.436"/>
					</g>
					
						<line style="fill:none;stroke:#E63946;stroke-width:4.1418;stroke-miterlimit:10;" x1="242.664" y1="289.694" x2="231.434" y2="309.144"/>
				</g>
			</g>
		</g>
		<g>
			<path style="fill:#A8DADC;" d="M334.029,83.799H166.606c-6.864,0-12.479-5.616-12.479-12.479V58.603
				c0-6.863,5.615-12.479,12.479-12.479h167.423c6.863,0,12.479,5.615,12.479,12.479V71.32
				C346.508,78.183,340.892,83.799,334.029,83.799z"/>
			<g>
				<g>
					<g>
						<path style="fill:#FFFFFF;" d="M327.239,68.924c0,0,0.199-0.119,0.367,0.049c0.913,0.913,3.652,3.652,3.652,3.652
							c0.728,0.728,1.747,0.902,2.393,0.256l0.111-0.111c0.646-0.646,0.473-1.665-0.256-2.393c0,0-2.745-2.745-3.66-3.66
							c-0.16-0.16-0.042-0.36-0.042-0.36c1.653-2.756,1.294-6.285-1.079-8.657c-2.797-2.797-7.348-2.797-10.145,0
							c-2.797,2.797-2.797,7.348,0,10.145C320.955,70.217,324.484,70.577,327.239,68.924z M319.906,66.52
							c-2.067-2.067-2.067-5.429,0-7.496c2.066-2.067,5.429-2.067,7.496,0c2.067,2.067,2.067,5.429,0,7.496
							C325.335,68.587,321.973,68.587,319.906,66.52z"/>
						<g>
							<path style="fill:#FFFFFF;" d="M326.262,61.895c-0.683-1.615-2.553-2.373-4.168-1.689c-0.377,0.159-0.811-0.017-0.97-0.393
								s0.017-0.811,0.393-0.97c2.367-1.002,5.107,0.109,6.108,2.476c0.159,0.377-0.017,0.811-0.393,0.97
								c-0.094,0.04-0.192,0.059-0.288,0.059C326.656,62.347,326.382,62.177,326.262,61.895z"/>
						</g>
					</g>
				</g>
			</g>
		</g>
		<g>
			<path style="fill:#E63946;" d="M145.208,177.947v-9.365h-4.527c0,0-2.497,4.683-6.868,4.683v4.683v4.683
				c4.371,0,6.868,4.683,6.868,4.683h4.527V177.947z"/>
			<path style="fill:#E63946;" d="M72.456,184.501v-13.108c0-1.221,0.99-2.211,2.211-2.211h56.936c1.221,0,2.211,0.99,2.211,2.211
				v13.108c0,1.221-0.99,2.211-2.211,2.211H74.667C73.445,186.712,72.456,185.722,72.456,184.501z"/>
			<polygon style="fill:#E63946;" points="201.402,178.986 201.402,177.947 201.402,176.908 198.675,175.61 140.533,175.61 
				140.533,177.947 140.533,180.284 198.675,180.284 			"/>
			
				<line style="fill:none;stroke:#FFFFFF;stroke-width:2.3373;stroke-linecap:round;stroke-linejoin:round;stroke-miterlimit:10;" x1="78.299" y1="177.947" x2="127.97" y2="177.947"/>
			
				<line style="fill:none;stroke:#FFFFFF;stroke-width:2.3373;stroke-linecap:round;stroke-linejoin:round;stroke-miterlimit:10;" x1="78.299" y1="173.029" x2="127.97" y2="173.029"/>
			
				<line style="fill:none;stroke:#FFFFFF;stroke-width:2.3373;stroke-linecap:round;stroke-linejoin:round;stroke-miterlimit:10;" x1="78.299" y1="182.865" x2="127.97" y2="182.865"/>
		</g>
		<g>
			<g>
				<g>
					<polyline style="fill:none;stroke:#C0C0C0;stroke-width:5.1996;stroke-linecap:square;stroke-miterlimit:10;" points="
						433.648,250.182 433.648,250.192 433.638,250.192 					"/>
					
						<line style="fill:none;stroke:#C0C0C0;stroke-width:5.1996;stroke-linecap:square;stroke-miterlimit:10;stroke-dasharray:0.0193,10.0199;" x1="423.618" y1="250.192" x2="368.393" y2="250.192"/>
					<polyline style="fill:none;stroke:#C0C0C0;stroke-width:5.1996;stroke-linecap:square;stroke-miterlimit:10;" points="
						363.383,250.192 363.373,250.192 363.373,250.182 					"/>
					
						<line style="fill:none;stroke:#C0C0C0;stroke-width:5.1996;stroke-linecap:square;stroke-miterlimit:10;stroke-dasharray:0.0193,10.0199;" x1="363.373" y1="240.162" x2="363.373" y2="184.937"/>
					<polyline style="fill:none;stroke:#C0C0C0;stroke-width:5.1996;stroke-linecap:square;stroke-miterlimit:10;" points="
						363.373,179.927 363.373,179.917 363.383,179.917 					"/>
					
						<line style="fill:none;stroke:#C0C0C0;stroke-width:5.1996;stroke-linecap:square;stroke-miterlimit:10;stroke-dasharray:0.0193,10.0199;" x1="373.403" y1="179.917" x2="428.628" y2="179.917"/>
					<polyline style="fill:none;stroke:#C0C0C0;stroke-width:5.1996;stroke-linecap:square;stroke-miterlimit:10;" points="
						433.638,179.917 433.648,179.917 433.648,179.927 					"/>
					
						<line style="fill:none;stroke:#C0C0C0;stroke-width:5.1996;stroke-linecap:square;stroke-miterlimit:10;stroke-dasharray:0.0193,10.0199;" x1="433.648" y1="189.947" x2="433.648" y2="245.172"/>
				</g>
			</g>
			
				<ellipse transform="matrix(0.9737 -0.2277 0.2277 0.9737 -38.4968 96.3801)" style="fill:#A8DADC;" cx="398.511" cy="215.054" rx="21.272" ry="21.272"/>
			<circle style="fill:#E63946;" cx="363.373" cy="179.917" r="5.546"/>
			<circle style="fill:#E63946;" cx="433.648" cy="179.917" r="5.546"/>
			<path style="fill:#E63946;" d="M368.919,250.192c0-3.063-2.483-5.546-5.546-5.546c-3.063,0-5.546,2.483-5.546,5.546
				s2.483,5.546,5.546,5.546C366.436,255.738,368.919,253.255,368.919,250.192z"/>
			<path style="fill:#E63946;" d="M439.195,250.192c0-3.063-2.483-5.546-5.546-5.546c-3.063,0-5.546,2.483-5.546,5.546
				s2.483,5.546,5.546,5.546C436.712,255.738,439.195,253.255,439.195,250.192z"/>
			<g>
				<g>
					
						<line style="fill:none;stroke:#FFFFFF;stroke-width:4.1597;stroke-miterlimit:10;" x1="394.132" y1="219.433" x2="402.89" y2="210.676"/>
					<g>
						<polygon style="fill:#FFFFFF;" points="399.819,222.545 387.8,225.766 391.02,213.746 						"/>
					</g>
					<g>
						<polygon style="fill:#FFFFFF;" points="406.002,216.363 409.222,204.344 397.203,207.564 						"/>
					</g>
				</g>
			</g>
		</g>
		<g>
			<rect x="290.185" y="383.261" style="fill:#A8DADC;" width="47.939" height="65.662"/>
			<polygon style="fill:#A8DADC;" points="338.124,383.261 290.185,383.261 279.785,409.926 327.725,409.926 			"/>
			<rect x="338.124" y="383.261" style="fill:#457B9D;" width="47.939" height="65.662"/>
			<polygon style="fill:#A8DADC;" points="386.063,383.261 338.124,383.261 348.523,409.926 396.462,409.926 			"/>
			<polygon style="fill:#78B4B4;" points="290.185,415.027 338.124,415.027 338.124,383.261 327.725,409.926 290.185,409.926 			"/>
			<polygon style="fill:#1E5A78;" points="338.124,383.261 338.124,415.027 386.063,415.027 386.063,409.926 348.523,409.926 			"/>
		</g>
		<g>
			<path style="fill:#E63946;" d="M109.13,323.179H54.916c-5.344,0-9.676-4.332-9.676-9.676v-54.214
				c0-5.344,4.332-9.676,9.676-9.676h54.214c5.344,0,9.676,4.332,9.676,9.676v54.214
				C118.806,318.847,114.474,323.179,109.13,323.179z"/>
			<path style="fill:#BE141E;" d="M109.13,249.613H61.497v37.234c0,11.069,9.006,20.075,20.075,20.075h37.234v-47.633
				C118.806,253.945,114.474,249.613,109.13,249.613z"/>
			<path style="fill:#DCDCD2;" d="M135.786,296.523H81.572c-5.344,0-9.676-4.332-9.676-9.676v-54.214
				c0-5.344,4.332-9.676,9.676-9.676h54.214c5.344,0,9.676,4.332,9.676,9.676v54.214
				C145.462,292.191,141.13,296.523,135.786,296.523z"/>
		</g>
		<g>
			<path style="fill:#A8DADC;" d="M426.848,90.786L426.848,90.786c2-4.105,3.124-8.715,3.124-13.589
				c0-17.161-13.912-31.073-31.073-31.073c-17.161,0-31.073,13.912-31.073,31.073c0,4.874,1.125,9.484,3.125,13.589h0l0.001,0.002
				c0.535,1.099,1.139,2.158,1.795,3.18c3.005,5.63,8.731,24.097,8.731,35.269h34.841c0-11.171,5.726-29.639,8.731-35.269
				c0.657-1.022,1.26-2.081,1.795-3.18L426.848,90.786z"/>
			
				<path style="fill:none;stroke:#FFFFFF;stroke-width:6.2783;stroke-linecap:round;stroke-linejoin:round;stroke-miterlimit:10;" d="
				M381.029,72.342c1.578-5.804,5.916-10.483,11.51-12.535"/>
			<g>
				
					<line style="fill:none;stroke:#FFFFFF;stroke-width:3.1391;stroke-miterlimit:10;" x1="389.359" y1="131.482" x2="389.359" y2="106.815"/>
				
					<line style="fill:none;stroke:#FFFFFF;stroke-width:3.1391;stroke-miterlimit:10;" x1="408.44" y1="131.482" x2="408.44" y2="106.815"/>
				<path style="fill:none;stroke:#FFFFFF;stroke-width:3.1391;stroke-miterlimit:10;" d="M395.719,107.547
					c0,1.756-1.424,3.18-3.18,3.18s-3.18-1.424-3.18-3.18c0-1.756,1.424-3.18,3.18-3.18S395.719,105.791,395.719,107.547z"/>
				<path style="fill:none;stroke:#FFFFFF;stroke-width:3.1391;stroke-miterlimit:10;" d="M402.08,107.547
					c0,1.756-1.424,3.18-3.18,3.18c-1.756,0-3.18-1.424-3.18-3.18c0-1.756,1.424-3.18,3.18-3.18
					C400.656,104.367,402.08,105.791,402.08,107.547z"/>
				<path style="fill:none;stroke:#FFFFFF;stroke-width:3.1391;stroke-miterlimit:10;" d="M408.44,107.547
					c0,1.756-1.424,3.18-3.18,3.18c-1.756,0-3.18-1.424-3.18-3.18c0-1.756,1.424-3.18,3.18-3.18
					C407.016,104.367,408.44,105.791,408.44,107.547z"/>
			</g>
			<path style="fill:#1D3557;" d="M416.322,129.237h-34.845v9.777h2.806v4.775h3.314v5.023h2.556c0,4.831,3.916,8.747,8.747,8.747
				c4.831,0,8.747-3.916,8.747-8.747h2.555v-5.023h3.314v-4.775h2.806V129.237z"/>
			<path style="fill:#FFFFFF;" d="M381.029,80.341c0,1.734-1.405,3.139-3.139,3.139c-1.734,0-3.139-1.406-3.139-3.139
				c0-1.734,1.406-3.139,3.139-3.139C379.624,77.202,381.029,78.607,381.029,80.341z"/>
		</g>
		<g>
			<path style="fill:#1D3557;" d="M97.72,332.981H51.642c-3.521,0-6.403,2.881-6.403,6.402v21.268v5.118v10.069
				c0,1.165,1.26,1.895,2.271,1.315l8.676-4.981H97.72c3.521,0,6.403-2.881,6.403-6.402v-26.386
				C104.123,335.862,101.242,332.981,97.72,332.981z"/>
			<path style="fill:#E63946;" d="M93.234,355.674h46.078c3.521,0,6.402,2.881,6.402,6.402v21.268v5.118v10.069
				c0,1.165-1.26,1.895-2.271,1.315l-8.676-4.981H93.234c-3.521,0-6.402-2.881-6.402-6.402v-26.386
				C86.831,358.555,89.712,355.674,93.234,355.674z"/>
			<g>
				<g>
					
						<line style="fill:none;stroke:#FFFFFF;stroke-width:5.3354;stroke-miterlimit:10;" x1="61.755" y1="343.886" x2="94.834" y2="343.886"/>
					<rect x="53.606" y="341.219" style="fill:#FFFFFF;" width="5.335" height="5.335"/>
				</g>
				<g>
					
						<line style="fill:none;stroke:#FFFFFF;stroke-width:5.3354;stroke-miterlimit:10;" x1="61.755" y1="353.052" x2="84.163" y2="353.052"/>
					<rect x="53.606" y="350.384" style="fill:#FFFFFF;" width="5.335" height="5.335"/>
				</g>
			</g>
			<g>
				<g>
					
						<line style="fill:none;stroke:#FFFFFF;stroke-width:5.3354;stroke-miterlimit:10;" x1="103.807" y1="369.911" x2="136.887" y2="369.911"/>
					<rect x="95.659" y="367.243" style="fill:#FFFFFF;" width="5.335" height="5.335"/>
				</g>
				<g>
					
						<line style="fill:none;stroke:#FFFFFF;stroke-width:5.3354;stroke-miterlimit:10;" x1="103.807" y1="379.077" x2="126.216" y2="379.077"/>
					<rect x="95.659" y="376.409" style="fill:#FFFFFF;" width="5.335" height="5.335"/>
				</g>
			</g>
		</g>
		<g>
			<path style="fill:#1D3557;" d="M383.008,331.957h-22.635c-2.872,0-5.2-2.328-5.2-5.2v-22.635c0-2.872,2.328-5.2,5.2-5.2h22.635
				c2.872,0,5.2,2.328,5.2,5.2v22.635C388.207,329.629,385.879,331.957,383.008,331.957z"/>
			<path style="fill:#DCDCD2;" d="M383.008,370.266h-22.635c-2.872,0-5.2-2.328-5.2-5.199v-22.635c0-2.872,2.328-5.2,5.2-5.2h22.635
				c2.872,0,5.2,2.328,5.2,5.2v22.635C388.207,367.938,385.879,370.266,383.008,370.266z"/>
			<path style="fill:#E63946;" d="M422.152,331.957h-22.635c-2.871,0-5.199-2.328-5.199-5.2v-22.635c0-2.872,2.328-5.2,5.199-5.2
				h22.635c2.872,0,5.2,2.328,5.2,5.2v22.635C427.352,329.629,425.024,331.957,422.152,331.957z"/>
			<path style="fill:#3A6EA5;" d="M422.152,370.266h-22.635c-2.871,0-5.199-2.328-5.199-5.199v-22.635c0-2.872,2.328-5.2,5.199-5.2
				h22.635c2.872,0,5.2,2.328,5.2,5.2v22.635C427.352,367.938,425.024,370.266,422.152,370.266z"/>
			<g>
				<path style="fill:#1D3557;" d="M462.501,265.231L462.501,265.231c-2.085-2.085-5.465-2.085-7.55,0l-12.638,12.638l7.55,7.55
					l12.638-12.638C464.586,270.696,464.586,267.316,462.501,265.231z"/>
				<path style="fill:#3A6EA5;" d="M446.312,272.097l-33.578,33.578c-1.598,1.598-2.202,3.811-1.816,5.876l-2.411,2.411
					c-1.453,1.453-1.453,3.81,0,5.263v0c1.453,1.453,3.81,1.453,5.263,0l2.411-2.411c2.065,0.385,4.279-0.219,5.876-1.816
					l33.578-33.578L446.312,272.097z"/>
				
					<rect x="441.201" y="273.948" transform="matrix(0.7071 0.7071 -0.7071 0.7071 327.7867 -237.8264)" style="fill:#1D3557;" width="19.546" height="5.62"/>
			</g>
			<g>
				<path style="fill:#1D3557;" d="M410.834,273.317c4.027,0,7.291,3.264,7.291,7.291h6.228c0-7.466-6.053-13.519-13.519-13.519
					c-7.466,0-13.519,6.053-13.519,13.519h6.228C403.544,276.581,406.808,273.317,410.834,273.317z"/>
				<path style="fill:#E63946;" d="M410.834,294.126c7.466,0,13.519-6.053,13.519-13.519h-6.228c0,4.026-3.264,7.29-7.291,7.29
					c-4.026,0-7.291-3.264-7.291-7.29h-6.228C397.315,288.074,403.368,294.126,410.834,294.126z"/>
			</g>
		</g>
		<g>
			<path style="fill:#E63946;" d="M139.249,93.77c0-16.043-13.504-28.931-29.765-27.919c-13.73,0.855-24.988,11.889-26.092,25.601
				c-0.937,11.634,5.252,21.92,14.669,26.974c3.34,1.793,5.388,5.313,5.388,9.104v7.181c0,4.322,3.504,7.825,7.825,7.825h0
				c4.322,0,7.825-3.504,7.825-7.825v-7.181c0-3.837,2.127-7.335,5.5-9.165C133.324,113.63,139.249,104.394,139.249,93.77z"/>
			
				<ellipse transform="matrix(0.7071 -0.7071 0.7071 0.7071 -33.7136 106.1471)" style="fill:#FFFFFF;" cx="111.274" cy="93.77" rx="10.435" ry="10.435"/>
		</g>
		<path style="fill:#DCDCD2;" d="M75.778,119.149c0-0.861-1.008-1.629-2.586-2.134c-1.091-0.349-1.943-1.201-2.292-2.292
			c-0.504-1.577-1.272-2.586-2.134-2.586c-0.861,0-1.629,1.008-2.134,2.586c-0.349,1.091-1.201,1.943-2.292,2.292
			c-1.577,0.504-2.586,1.272-2.586,2.134c0,0.862,1.008,1.629,2.586,2.134c1.091,0.349,1.943,1.201,2.292,2.292
			c0.504,1.577,1.272,2.586,2.134,2.586c0.862,0,1.629-1.008,2.134-2.586c0.349-1.091,1.201-1.943,2.292-2.292
			C74.77,120.778,75.778,120.01,75.778,119.149z"/>
		<path style="fill:#DCDCD2;" d="M137.034,205.135c0-0.862-1.008-1.629-2.586-2.134c-1.091-0.349-1.943-1.201-2.292-2.292
			c-0.504-1.577-1.272-2.586-2.134-2.586c-0.861,0-1.629,1.008-2.134,2.586c-0.349,1.091-1.201,1.943-2.292,2.292
			c-1.577,0.504-2.586,1.272-2.586,2.134c0,0.861,1.008,1.629,2.586,2.134c1.091,0.349,1.943,1.201,2.292,2.292
			c0.504,1.578,1.272,2.586,2.134,2.586c0.862,0,1.629-1.008,2.134-2.586c0.349-1.091,1.201-1.943,2.292-2.292
			C136.026,206.764,137.034,205.996,137.034,205.135z"/>
		<path style="fill:#DCDCD2;" d="M137.034,331.957c0-0.862-1.008-1.629-2.586-2.134c-1.091-0.349-1.943-1.201-2.292-2.292
			c-0.504-1.578-1.272-2.586-2.134-2.586c-0.861,0-1.629,1.008-2.134,2.586c-0.349,1.091-1.201,1.943-2.292,2.292
			c-1.577,0.504-2.586,1.272-2.586,2.134c0,0.861,1.008,1.629,2.586,2.134c1.091,0.349,1.943,1.201,2.292,2.292
			c0.504,1.577,1.272,2.586,2.134,2.586c0.862,0,1.629-1.008,2.134-2.586c0.349-1.091,1.201-1.943,2.292-2.292
			C136.026,333.586,137.034,332.818,137.034,331.957z"/>
		<path style="fill:#DCDCD2;" d="M377.624,278.267c0-0.861-1.008-1.629-2.586-2.134c-1.091-0.349-1.943-1.201-2.292-2.292
			c-0.504-1.578-1.272-2.586-2.134-2.586c-0.862,0-1.629,1.009-2.134,2.586c-0.349,1.091-1.201,1.943-2.292,2.292
			c-1.577,0.504-2.586,1.272-2.586,2.134c0,0.862,1.008,1.629,2.586,2.134c1.091,0.349,1.943,1.201,2.292,2.292
			c0.504,1.578,1.272,2.586,2.134,2.586c0.861,0,1.629-1.008,2.134-2.586c0.349-1.091,1.201-1.943,2.292-2.292
			C376.616,279.897,377.624,279.129,377.624,278.267z"/>
		<path style="fill:#DCDCD2;" d="M367.124,117.739c0-0.861-1.008-1.629-2.586-2.134c-1.091-0.349-1.943-1.201-2.292-2.292
			c-0.504-1.577-1.272-2.586-2.134-2.586c-0.862,0-1.629,1.008-2.134,2.586c-0.349,1.091-1.201,1.943-2.292,2.292
			c-1.577,0.504-2.586,1.272-2.586,2.134c0,0.862,1.008,1.629,2.586,2.134c1.091,0.349,1.943,1.201,2.292,2.292
			c0.504,1.577,1.272,2.586,2.134,2.586c0.861,0,1.629-1.008,2.134-2.586c0.349-1.091,1.201-1.943,2.292-2.292
			C366.116,119.368,367.124,118.601,367.124,117.739z"/>
		<path style="fill:#DCDCD2;" d="M440.66,150.409c0-0.861-1.008-1.629-2.586-2.134c-1.091-0.349-1.943-1.201-2.292-2.292
			c-0.504-1.577-1.272-2.586-2.134-2.586c-0.861,0-1.629,1.008-2.134,2.586c-0.349,1.091-1.201,1.943-2.292,2.292
			c-1.577,0.504-2.586,1.272-2.586,2.134s1.008,1.629,2.586,2.134c1.091,0.349,1.943,1.201,2.292,2.292
			c0.504,1.577,1.272,2.586,2.134,2.586c0.862,0,1.629-1.008,2.134-2.586c0.349-1.091,1.201-1.943,2.292-2.292
			C439.652,152.039,440.66,151.271,440.66,150.409z"/>
	</g>
</g>
</svg>
